<svg id="Layer_1" data-name="Layer 1" xmlns="http://www.w3.org/2000/svg" viewBox="0 0 100 100"><defs><style>.cls-1{fill:#191717;stroke:#231f20;stroke-miterlimit:10;stroke-width:0.25px;fill-rule:evenodd;}</style></defs><title>github-icon</title><path class="cls-1" d="M50,1.72A49.51,49.51,0,0,0,34.35,98.19c2.48.46,3.38-1.07,3.38-2.38s0-4.29-.06-8.42C23.9,90.38,21,80.75,21,80.75c-2.25-5.72-5.5-7.24-5.5-7.24-4.49-3.07.34-3,.34-3,5,.35,7.59,5.1,7.59,5.1C27.83,83.17,35,81,37.82,79.72A10.56,10.56,0,0,1,41,73.1c-11-1.25-22.55-5.5-22.55-24.47a19.16,19.16,0,0,1,5.09-13.28c-.51-1.25-2.2-6.28.49-13.1,0,0,4.15-1.33,13.61,5.08a46.83,46.83,0,0,1,24.79,0C71.85,20.92,76,22.25,76,22.25c2.7,6.82,1,11.85.5,13.1a19.11,19.11,0,0,1,5.08,13.28c0,19-11.57,23.2-22.6,24.43,1.78,1.53,3.36,4.55,3.36,9.17,0,6.61-.06,12-.06,13.58,0,1.32.9,2.86,3.41,2.38A49.51,49.51,0,0,0,50,1.72Z"/></svg>