<?xml version="1.0" encoding="utf-8"?>
<!-- Generator: Adobe Illustrator 22.0.1, SVG Export Plug-In . SVG Version: 6.00 Build 0)  -->
<svg version="1.1" id="Layer_1" xmlns="http://www.w3.org/2000/svg" xmlns:xlink="http://www.w3.org/1999/xlink" x="0px" y="0px"
	 viewBox="0 0 350 300" style="enable-background:new 0 0 350 300;" xml:space="preserve">
<style type="text/css">
	.st0{fill:none;}
	.st1{fill:#ABD0B2;stroke:#ABD0B2;stroke-width:2.5;stroke-linecap:round;stroke-miterlimit:10;}
	.st2{fill:none;stroke:#353334;stroke-width:5;stroke-miterlimit:10;}
	.st3{fill:#FFFFFF;stroke:#353334;stroke-width:2;stroke-miterlimit:10;}
	.st4{fill:#FFFFFF;stroke:#353334;stroke-width:5;stroke-miterlimit:10;}
	.st5{fill:#366A3B;stroke:#366A3B;stroke-width:5;stroke-miterlimit:10;}
	.st6{fill:none;stroke:#353334;stroke-width:2.5;stroke-linecap:round;stroke-miterlimit:10;}
	.st7{fill:#427A46;stroke:#427A46;stroke-width:5;stroke-miterlimit:10;}
	.st8{fill:#427A46;stroke:#427A46;stroke-miterlimit:10;}
	.st9{fill:#353334;}
	.st10{fill:none;stroke:#353334;stroke-width:3;stroke-miterlimit:10;}
	.st11{fill:none;stroke:#353334;stroke-width:2;stroke-miterlimit:10;}
	.st12{fill:#CA9A2C;stroke:#353334;stroke-width:3;stroke-miterlimit:10;}
	.st13{fill:#CA9A2C;stroke:#353334;stroke-miterlimit:10;}
	.st14{fill:none;stroke:#353334;stroke-width:2;stroke-linecap:round;stroke-linejoin:round;stroke-miterlimit:10;}
	.st15{fill:none;stroke:#353334;stroke-width:3;stroke-linecap:round;stroke-linejoin:round;stroke-miterlimit:10;}
	.st16{fill:#EFB3A7;stroke:#353334;stroke-width:2;stroke-linecap:round;stroke-linejoin:round;stroke-miterlimit:10;}
	.st17{fill:#EF3A37;}
	.st18{fill:#CA9A2C;}
	.st19{fill:none;stroke:#353334;stroke-width:5;stroke-linecap:round;stroke-linejoin:round;stroke-miterlimit:10;}
	.st20{fill:#D1D3D4;stroke:#353334;stroke-width:5;stroke-linecap:round;stroke-linejoin:round;stroke-miterlimit:10;}
	.st21{fill:#CA992C;stroke:#353434;stroke-width:3;stroke-miterlimit:10;}
	.st22{fill:#C04E4E;stroke:#353434;stroke-width:3;stroke-miterlimit:10;}
	.st23{fill:none;stroke:#353434;stroke-width:3;stroke-linecap:round;stroke-miterlimit:10;}
	.st24{fill:#FAC2C3;stroke:#353434;stroke-width:3;stroke-linecap:round;stroke-linejoin:round;stroke-miterlimit:10;}
	.st25{fill:#353434;}
	.st26{fill:#C36666;}
	.st27{fill:#CA9A2C;stroke:#353434;stroke-width:5;stroke-linecap:round;stroke-linejoin:round;stroke-miterlimit:10;}
	.st28{fill:#C36666;stroke:#353434;stroke-width:2;stroke-linecap:round;stroke-linejoin:round;stroke-miterlimit:10;}
	.st29{fill:#CA9A2C;stroke:#353334;stroke-width:2;stroke-linecap:round;stroke-linejoin:round;stroke-miterlimit:10;}
	.st30{fill:#991B1E;stroke:#353334;stroke-width:2;stroke-linecap:round;stroke-linejoin:round;stroke-miterlimit:10;}
	.st31{fill:#427A46;stroke:#353334;stroke-width:5;stroke-linecap:round;stroke-linejoin:round;stroke-miterlimit:10;}
	.st32{fill:none;stroke:#FFFFFF;stroke-width:5;stroke-linecap:round;stroke-linejoin:round;stroke-miterlimit:10;}
	.st33{fill:#427A46;stroke:#353334;stroke-width:2;stroke-linecap:round;stroke-linejoin:round;stroke-miterlimit:10;}
	.st34{fill:none;stroke:#353434;stroke-width:2;stroke-linecap:round;stroke-linejoin:round;stroke-miterlimit:10;}
	.st35{fill:#F16667;stroke:#353434;stroke-width:5;stroke-linecap:round;stroke-linejoin:round;stroke-miterlimit:10;}
</style>
<g>
	<g>
		<path class="st0" d="M23.8,7.3v300h300V7.3H23.8z M307.2,145.9c-3.8,0-3.8-5.8,0-5.8C311,140.1,311,145.9,307.2,145.9z M306.8,174
			c-3.8,0-3.8-5.8,0-5.8C310.6,168.2,310.6,174,306.8,174z M303.6,100c-3.8,0-3.8-5.8,0-5.8S307.4,100,303.6,100z M303.3,29.6
			c3.8,0,3.8,5.8,0,5.8S299.5,29.6,303.3,29.6z M299.8,149.8c3.8,0,3.8,5.8,0,5.8C296,155.7,296,149.8,299.8,149.8z M293.9,51.2
			c-3.8,0-3.8-5.8,0-5.8C297.7,45.4,297.7,51.2,293.9,51.2z M289.8,29.6c3.8,0,3.8,5.8,0,5.8C286.1,35.4,286.1,29.6,289.8,29.6z
			 M286.3,36.6c3.8,0,3.8,5.8,0,5.8C282.6,42.4,282.6,36.6,286.3,36.6z M279.8,95.8c0.5-0.6,1.2-1,2.2-1h4.1c1.6,0,2.9,1.3,2.9,2.9
			c0.1,1.6-1.4,2.9-2.9,2.9H282c-1.1,0-1.9-0.5-2.4-1.3c-0.3-0.5-0.5-1-0.5-1.7C279,97,279.3,96.3,279.8,95.8z M281.5,167
			c3.5,0,7-0.3,10.5,0.5c3.7,0.8,2.1,6.5-1.6,5.6c-2.9-0.7-6-0.3-9-0.3C277.7,172.9,277.7,167,281.5,167z M272.3,36
			c3.8,0,3.8,5.8,0,5.8S268.5,36,272.3,36z M243.1,28.4c4.5,0,9,0.4,13.4-0.9c0.2-0.1,0.4-0.1,0.6-0.2c1.3-0.4,2.3,0.2,2.9,1
			c1.1,1.5,0.6,4.3-1.6,4.7c-5,1.7-10.1,1.3-15.3,1.2C239.3,34.2,239.3,28.4,243.1,28.4z M155.9,269.3c3.8,0,3.8,5.8,0,5.8
			C152.2,275.2,152.2,269.3,155.9,269.3z M95.1,43H67.6c-3.8,0-3.8-5.8,0-5.8h27.5C98.9,37.2,98.9,43,95.1,43z M57.8,30
			c0.4-1.6,2-2.3,3.6-2c2.7,0.5,5.5,0.7,8.2,1.2c1.6,0.3,2.4,2.2,2,3.6c-0.4,1.6-2,2.3-3.6,2c-2.7-0.5-5.5-0.7-8.2-1.2
			C58.3,33.3,57.4,31.4,57.8,30z M55.3,52.4c-3.8,0-3.8-5.8,0-5.8C59.1,46.5,59.1,52.4,55.3,52.4z M55.6,91.3c-3.8,0-3.8-5.8,0-5.8
			C59.4,85.4,59.4,91.3,55.6,91.3z M53,38.3c3.8,0,3.8,5.8,0,5.8C49.2,44.2,49.2,38.3,53,38.3z M46.6,38.9c3.8,0,3.8,5.8,0,5.8
			C42.8,44.8,42.8,38.9,46.6,38.9z M41.9,64.1c3.8,0,3.8,5.8,0,5.8C38.1,69.9,38.1,64.1,41.9,64.1z M36.3,84.5c3.8,0,3.8,5.8,0,5.8
			C32.6,90.4,32.6,84.5,36.3,84.5z M38.1,95.6C38,94,39.5,92.7,41,92.7h2c1.4,0,2.4,0.9,2.8,2.1c0.5-0.4,1.1-0.7,1.9-0.7
			c3.5,0.1,7,0.8,10.5,0.6c3.8-0.2,3.7,5.6,0,5.8c-3.5,0.2-7-0.5-10.5-0.6c-1.6,0-2.5-1-2.7-2.2c-0.5,0.5-1.2,0.8-1.9,0.8h-2
			C39.4,98.6,38.2,97.2,38.1,95.6z M56.5,146.7c-3.8,0-3.8-5.8,0-5.8S60.3,146.7,56.5,146.7z M42.9,155.7c-3.8,0-3.8-5.8,0-5.8
			C46.6,149.8,46.6,155.7,42.9,155.7z M47.7,283.4c-3.8,0-3.8-5.8,0-5.8C51.5,277.5,51.5,283.4,47.7,283.4z M49.5,173.6
			c-3.8,0-3.8-5.8,0-5.8S53.3,173.6,49.5,173.6z M56.5,292.7c-3.8,0-3.8-5.8,0-5.8C60.3,286.9,60.3,292.7,56.5,292.7z M60.4,181.4
			c-3.8,0-3.8-5.8,0-5.8C64.2,175.6,64.2,181.4,60.4,181.4z M67.8,150.2c3.8,0,3.8,5.8,0,5.8C64.1,156.1,64.1,150.2,67.8,150.2z
			 M67.8,140.9c3.8,0,3.8,5.8,0,5.8C64.1,146.7,64.1,140.9,67.8,140.9z M69.8,172.5c-3.8,0-3.8-5.8,0-5.8
			C73.5,166.6,73.5,172.5,69.8,172.5z M76.4,291c-3.8,0-3.8-5.8,0-5.8C80.2,285.1,80.2,291,76.4,291z M80.7,177.1
			c3.8,0,3.8,5.8,0,5.8C76.9,183,76.9,177.1,80.7,177.1z M80.3,140.1c3.8,0,3.8,5.8,0,5.8C76.5,145.9,76.5,140.1,80.3,140.1z
			 M81.4,100.3c-3.8,0-3.8-5.8,0-5.8C85.1,94.5,85.1,100.3,81.4,100.3z M77,126.6c-3.8,0-3.8-5.8,0-5.8
			C80.8,120.8,80.7,126.6,77,126.6z M78.2,283.4c-3.8,0-3.8-5.8,0-5.8C81.9,277.5,81.9,283.4,78.2,283.4z M91.6,284.5
			c-3.8,0-3.8-5.8,0-5.8S95.4,284.5,91.6,284.5z M93.4,275.2c-3.9-0.5-7.8-0.6-11.7-0.6c-3.8,0-3.8-5.8,0-5.8
			c3.9,0,7.8,0.1,11.7,0.6c1.6,0.2,2.9,1.2,2.9,2.9C96.3,273.7,94.9,275.4,93.4,275.2z M97.4,58.8c-2.5,0-3.3-2.5-2.6-4.2
			C87,54,79.1,51.3,71.1,51.2c-0.9,0-1.5-0.3-2-0.8c-0.3,1.1-1.2,2-2.7,2c-3.8,0-3.8-5.8,0-5.8c0.9,0,1.5,0.3,2,0.8
			c0.3-1.1,1.2-2,2.7-1.9c6.8,0.1,13.8,2.4,20.7,3.3c-0.3-1.6,0.6-3.6,2.7-3.9c5.1-0.6,9.6,0.6,11.6,5.7c0.6,1.4-0.6,3.3-2,3.6
			s-2.7,0.5-4.1,0.6C100.7,56.3,99.9,58.8,97.4,58.8z M108.6,284c-0.7,0-1.4-0.1-2.1-0.3c-0.2-0.1-0.5-0.2-0.7-0.2h-0.1l0,0
			c-1.6,0-2.9-1.3-2.9-2.9c-0.1-1.5,1.4-3,2.9-2.9c0.7,0,1.4,0.1,2.1,0.3c0.2,0.1,0.5,0.2,0.7,0.2h0.1l0,0c1.6,0,2.9,1.3,2.9,2.9
			C111.6,282.6,110.1,284,108.6,284z M125.5,34.8h-8.2c-3.8,0-3.8-5.8,0-5.8h8.2C129.3,29,129.3,34.8,125.5,34.8z M161.8,290.4
			h-12.9c-3.8,0-3.8-5.8,0-5.8h12.9C165.5,284.5,165.5,290.4,161.8,290.4z M163.5,51.2H160c-1.6,0-2.9-1.3-2.9-2.9
			c-0.1-1.6,1.4-2.9,2.9-2.9h3.5c1.6,0,2.9,1.3,2.9,2.9C166.5,49.9,165.1,51.2,163.5,51.2z M170.5,275.2c-3.8,0-3.8-5.8,0-5.8
			C174.3,269.3,174.3,275.2,170.5,275.2z M176.4,291c-2.1,0-3.1-1.9-2.8-3.5c-0.3-1.6,0.6-3.5,2.8-3.5c2.1,0,3.1,1.9,2.8,3.5
			C179.5,289.1,178.5,291,176.4,291z M179.3,45.4c3.8,0,3.8,5.8,0,5.8C175.6,51.2,175.6,45.4,179.3,45.4z M199.2,284h-17
			c-3.8,0-3.8-5.8,0-5.8h17C203,278.1,203,284,199.2,284z M192.8,269.9c3.8,0,3.8,5.8,0,5.8C189,275.8,189,269.9,192.8,269.9z
			 M193.4,45.4c3.8,0,3.8,5.8,0,5.8C189.6,51.2,189.6,45.4,193.4,45.4z M206.2,34.2h-25.1c-3.8,0-3.8-5.8,0-5.8h25.1
			C210,28.4,210,34.2,206.2,34.2z M226.1,45.4c14.8,0,29.6,1.7,44.4,1.8c3.8,0,3.8,5.9,0,5.8c-14.8,0-29.6-1.7-44.4-1.8
			C222.3,51.2,222.3,45.3,226.1,45.4z M262.9,275.8c-3.8,0-3.8-5.8,0-5.8C266.7,269.9,266.7,275.8,262.9,275.8z M244.8,275.8
			c-3.8,0-3.8-5.8,0-5.8C248.6,269.9,248.6,275.8,244.8,275.8z M230.8,275.8c-3.8,0-3.8-5.8,0-5.8
			C234.6,269.9,234.5,275.8,230.8,275.8z M266.6,291.4c-9.3,1.8-18.8,1.3-28.3,1.3c-3.8,0-3.8-5.9,0-5.8c8.9,0,17.9,0.6,26.7-1.1
			C268.8,285.1,270.3,290.8,266.6,291.4z M272,84.5c3.8,0,3.8,5.8,0,5.8C268.2,90.4,268.2,84.5,272,84.5z M283.4,284
			c-3.8,0-3.8-5.8,0-5.8C287.2,278.1,287.2,284,283.4,284z M292.8,291.6c-3.8,0-3.8-5.8,0-5.8C296.5,285.7,296.5,291.6,292.8,291.6z
			 M300.4,274.6h-5.3c-1.6,0-2.9-1.3-2.9-2.9s1.3-2.9,2.9-2.9h5.3c1.6,0,2.9,1.3,2.9,2.9C303.3,273.3,302,274.6,300.4,274.6z
			 M305.2,207.1c-10.4,0.7-20.8-0.3-31.2-0.4c-3.8,0-3.8-5.9,0-5.8c10.4,0,20.8,1.1,31.2,0.4C309,201,309,206.9,305.2,207.1z
			 M308.1,181.4c-3.1-2-7.4-1.3-10.9-0.8c-3.8,0.5-7.6,1.3-11.4,1.2s-3.8-6,0-5.8c8.1,0.3,17.8-4.4,25.3,0.4
			C314.2,178.4,311.2,183.5,308.1,181.4z"/>
	</g>
	<g>
		<rect x="147" y="114" class="st1" width="60.5" height="86.6"/>
		<path class="st2" d="M200.4,215.2h-46.7c-3.9,0-7-3.1-7-7v-98.7c0-3.9,3.1-7,7-7h46.7c3.9,0,7,3.1,7,7v98.7
			C207.4,212.1,204.3,215.2,200.4,215.2z"/>
		<line class="st2" x1="146.7" y1="200.7" x2="207.4" y2="200.7"/>
		<line class="st2" x1="207.7" y1="114" x2="147" y2="114"/>
		<circle class="st3" cx="177.1" cy="207.9" r="3.5"/>
		<path class="st3" d="M181.6,108.3h-9.1c-0.3,0-0.5-0.2-0.5-0.5v-0.5c0-0.3,0.2-0.5,0.5-0.5h9.1c0.3,0,0.5,0.2,0.5,0.5v0.5
			C182.2,108.1,181.9,108.3,181.6,108.3z"/>
		<path class="st4" d="M185,166.8"/>
		<path class="st5" d="M182.2,173c0,0,1.7-2.1,3.3-2.7c1.6-0.6,2.6-2.6,2.8-3.7c0.6-2.3-0.7-5.6,0-6.5s4-0.2,5.1-4.6
			c0.3-1.6-1.1-4.2,0-6.8s3-0.9,3.5-4s-0.2-5.7-3.5-7s-6.9,0-8.3,2.5c-1.4,2.5,1.4,5.6,0,8.5s-3.2,1.5-4,4c-0.8,2.4,0.5,5,0,7.5
			s-2.8,2.5-4,5c-1.2,2.4,2.3,7.9,2.3,7.9L182.2,173L182.2,173z"/>
		<path class="st6" d="M180.7,173c0,0-1-2.3,0-6.8s3.6-4.1,4.4-6.3c0.8-2.3-2.6-3.7,1.9-8.6c1.5-1.6,3.5-2.5,3.3-4.5
			c-0.2-2.1,1.9-4.6,1.9-4.6"/>
		<path class="st7" d="M173,162.7c0,0-0.8-2.6-2.1-3.7c-1.3-1.2-1.5-3.4-1.3-4.4c0.3-2.4,2.7-4.9,2.3-6.1c-0.3-1.1-3.7-1.6-3.1-6.1
			c0.3-1.6,2.5-3.5,2.5-6.4c-0.1-2.9-2.5-1.9-1.8-5c0.7-3.1,2.2-5.2,5.8-5.3c3.6,0,6.4,2.5,6.9,5.3c0.4,2.9-3.3,4.8-3,7.9
			c0.3,3.2,2.5,2.6,2.3,5.1s-2.3,4.5-2.7,7s1.7,3.4,1.9,6.1c0.2,2.7-5,6.6-5,6.6L173,162.7z"/>
		<g>
			<path class="st8" d="M181,171.8c0.8-0.8,1.4-2.1,1.2-4.3c-0.3-1.6-2.5-3.5-2.5-6.4c0.1-2.9,2.5-1.9,1.8-5s-2.2-5.2-5.8-5.3
				c-3.6,0-6.4,2.5-6.9,5.3c-0.4,2.9,3.3,4.8,3,7.9c-0.3,3.2-2.5,2.6-2.3,5.1c0.1,0.9,0.4,1.7,0.7,2.5c0.2,0.4,0.4,0.8,0.6,1.2
				c0.2,0.4,0.4,0.8,0.6,1.2h7.5c0-0.2,0-0.4,0-0.5c0.1-0.2,0.3-0.4,0.5-0.7h-7.3c-0.1-0.2-0.2-0.4-0.3-0.6
				c-0.1-0.2-0.2-0.4-0.3-0.6h9.5V171.8z"/>
			<path class="st8" d="M183.3,167.4L183.3,167.4c-0.2-0.9-0.6-1.6-1.1-2.4c-0.7-1.1-1.4-2.3-1.3-3.8c0-0.8,0.3-1.1,0.7-1.5
				c0.8-0.8,1.6-1.7,1.1-3.8c-0.9-4.1-3.2-6.2-6.9-6.2c-4,0-7.5,2.7-8.1,6.4c-0.3,1.9,0.7,3.4,1.6,4.7c0.8,1.1,1.5,2.2,1.4,3.3
				c-0.1,1.2-0.5,1.6-1,2.1c-0.6,0.6-1.4,1.4-1.3,3.2c0.1,0.9,0.3,1.7,0.6,2.4c0.2,0.4,0.4,0.8,0.6,1.2c0.1,0.2,0.2,0.4,0.3,0.6
				c0.1,0.2,0.2,0.4,0.3,0.6h2.7c-0.2-0.4-0.4-0.8-0.6-1.2c-0.1-0.2-0.2-0.4-0.3-0.6c-0.1-0.2-0.2-0.4-0.3-0.6
				c-0.5-0.9-0.8-1.7-0.9-2.6c-0.1-0.7,0.1-0.9,0.6-1.4c0.6-0.6,1.5-1.5,1.7-3.6c0.2-2-0.9-3.5-1.8-4.9c-0.7-1.1-1.4-2-1.2-3
				c0.3-2.1,2.5-4.3,5.6-4.3h0.1c2.6,0,4,1.3,4.6,4.3c0.2,1,0.1,1.1-0.4,1.6c-0.6,0.5-1.4,1.3-1.5,3.1c-0.1,2.1,0.9,3.8,1.7,5.1
				c0.4,0.6,0.7,1.2,0.8,1.5c0.3,2.5-0.7,3.3-1.7,4c0,0-0.1,0-0.1,0.1h1.8c-0.5,0.5-1,0.9-1.4,1.2H178c-0.1,0.1-0.1,0.2-0.1,0.3
				c-0.1,0.3-0.1,0.6-0.1,0.9h2.5c0-0.1,0-0.1-0.1-0.2c0.1-0.1,0.3-0.2,0.4-0.4c0.2-0.2,0.5-0.4,0.8-0.6l1-1.2
				C183.1,170.8,183.5,169.4,183.3,167.4z"/>
		</g>
		<path class="st4" d="M188,184.2h-20.7c-2.5,0-4.6-2.1-4.6-4.6V175c0-2.5,2.1-4.6,4.6-4.6H188c2.5,0,4.6,2.1,4.6,4.6v4.6
			C192.6,182.1,190.5,184.2,188,184.2z"/>
		<g>
			<g>
				<path class="st9" d="M175.9,171.3c2.2-0.8,3.3-4,2.8-6.3c-0.4-1.7-1.8-2.7-2.5-4.2c-1.8-4,0.8-5.6,1.8-8.9
					c0.5-1.7,1.3-4.3,0.7-6.1c-0.5-1.7-2-2.2-2.4-4.1c-0.7-2.8,1.1-3.4,2-5.6c0.7-1.7,0.1-3.1-0.7-4.7c-0.7-1.5-2.8-0.2-2.2,1.3
					c1.3,2.8-2.9,6.3-2.2,9.5c0.7,3.3,3.3,3.4,2.6,7.5c-0.5,3.1-3.4,5.5-3.4,8.6c0,2.2,6,9.4,2.6,10.6
					C173.7,169.5,174.4,171.9,175.9,171.3L175.9,171.3z"/>
			</g>
		</g>
		<circle class="st10" cx="115.5" cy="132" r="16.9"/>
		<circle class="st10" cx="234.4" cy="138.9" r="16.9"/>
		<circle class="st10" cx="231.4" cy="182.3" r="16.9"/>
		<circle class="st10" cx="121" cy="175.5" r="16.9"/>
		<line class="st10" x1="132.4" y1="132" x2="146.7" y2="132"/>
		<line class="st10" x1="137.9" y1="175.5" x2="147" y2="175.5"/>
		<path class="st11" d="M241,114"/>
		<line class="st10" x1="217.5" y1="138.9" x2="207.7" y2="138.9"/>
		<line class="st10" x1="214.5" y1="182.3" x2="207.4" y2="182.3"/>
		<g>
			<line class="st11" x1="225.1" y1="176.3" x2="237.7" y2="176.3"/>
			<line class="st11" x1="225.1" y1="179.4" x2="237.7" y2="179.4"/>
			<line class="st11" x1="225.1" y1="182.5" x2="237.7" y2="182.5"/>
			<line class="st11" x1="225.1" y1="185.6" x2="237.7" y2="185.6"/>
			<line class="st11" x1="225.1" y1="188.7" x2="237.7" y2="188.7"/>
			<rect x="223" y="172.1" class="st11" width="16.9" height="20.5"/>
		</g>
		<path class="st12" d="M124.3,141.4h-17.6v-6.9c0-3.2,2.6-5.9,5.9-5.9h5.9c3.2,0,5.9,2.6,5.9,5.9v6.9H124.3z"/>
		<g>
			<path class="st11" d="M112.8,122.7c-1.3,0-2.5,1.1-2.5,2.5c0,1.3,1.1,2.5,2.5,2.5s2.5-1.1,2.5-2.5
				C115.3,123.8,114.1,122.7,112.8,122.7L112.8,122.7z"/>
		</g>
		<g>
			<polygon class="st9" points="116.4,121 114.6,121 114.6,128.7 116.4,128.7 			"/>
		</g>
		<path class="st13" d="M117.2,121h-3.3c-0.5,0-1-0.4-1-1v-1c0-0.5,0.4-1,1-1h3.3c0.5,0,1,0.4,1,1v1
			C118.1,120.6,117.7,121,117.2,121z"/>
		<polyline class="st14" points="117.8,128.7 117.8,123.4 125.5,123.4 		"/>
		<path class="st15" d="M117.8,123.4"/>
		<path class="st16" d="M121,167.2c-5.2,0-9.5,3.4-9.5,7.6c0,3.1,2.3,5.7,5.6,6.9c-0.1,0.1-0.2,0.3-0.3,0.5l-2,3.4l5.4-3.2
			c0.2,0,0.5,0,0.7,0c5.2,0,9.5-3.4,9.5-7.6C130.5,170.5,126.2,167.2,121,167.2z"/>
		<path class="st17" d="M236.8,138.9l-2.3-2.4l5.6-5.3c0.4-0.4,1.2-0.4,1.6,0l0.8,0.8c0.4,0.4,0.4,1.2,0,1.6L236.8,138.9z"/>
		<path class="st17" d="M236.7,139.4l-2.4,2.3l5.3,5.6c0.4,0.4,1.1,0.5,1.6,0l0.8-0.8c0.4-0.4,0.5-1.1,0-1.6L236.7,139.4z"/>
		<path class="st17" d="M234,141.4l-2.3-2.4l-5.6,5.3c-0.4,0.4-0.5,1.1,0,1.6l0.8,0.8c0.4,0.4,1.1,0.5,1.6,0L234,141.4z"/>
		<path class="st17" d="M233.9,136.4l-2.4,2.3l-5.3-5.6c-0.4-0.4-0.4-1.2,0-1.6l0.8-0.8c0.4-0.4,1.2-0.4,1.6,0L233.9,136.4z"/>
		<path class="st17" d="M236.4,140.5l-0.1-3.3l7.7-0.3c0.6,0,1.1,0.5,1.2,1.1v1.1c0,0.6-0.5,1.1-1.1,1.2L236.4,140.5z"/>
		<path class="st17" d="M236.1,140.8l-3.3,0.1l0.3,7.7c0,0.6,0.5,1.1,1.2,1.1h1.1c0.6,0,1.1-0.5,1.1-1.2L236.1,140.8z"/>
		<path class="st17" d="M232.7,140.6l-0.1-3.3l-7.7,0.3c-0.6,0-1.1,0.5-1.1,1.2v1.1c0,0.6,0.5,1.1,1.2,1.1L232.7,140.6z"/>
		<path class="st17" d="M235.9,136.7l-3.3,0.1l-0.3-7.7c0-0.6,0.5-1.1,1.1-1.2h1.1c0.6,0,1.1,0.5,1.2,1.1L235.9,136.7z"/>
		<path class="st17" d="M235.4,141.4l1.3-3.1l7.2,2.9c0.6,0.2,0.8,0.9,0.6,1.5l-0.4,1c-0.2,0.6-0.9,0.8-1.5,0.6L235.4,141.4z"/>
		<path class="st17" d="M235,141.6l-3.1-1.3l-2.9,7.2c-0.2,0.6,0,1.2,0.6,1.5l1,0.4c0.6,0.2,1.2,0,1.5-0.6L235,141.6z"/>
		<path class="st17" d="M232,140l1.3-3.1l-7.2-2.9c-0.6-0.2-1.2,0-1.5,0.6l-0.4,1c-0.2,0.6,0,1.2,0.6,1.5L232,140z"/>
		<path class="st17" d="M236.5,137.8l-3.1-1.3l2.9-7.2c0.2-0.6,0.9-0.8,1.5-0.6l1,0.4c0.6,0.2,0.8,0.9,0.6,1.5L236.5,137.8z"/>
		<path class="st17" d="M233.3,141.4l-1.3-3.1l-7.2,2.9c-0.6,0.2-0.8,0.9-0.6,1.5l0.4,1c0.2,0.6,0.9,0.8,1.5,0.6L233.3,141.4z"/>
		<path class="st17" d="M233.7,141.6l3.1-1.3l2.9,7.2c0.2,0.6,0,1.2-0.6,1.5l-1,0.4c-0.6,0.2-1.2,0-1.5-0.6L233.7,141.6z"/>
		<path class="st17" d="M236.7,140l-1.3-3.1l7.2-2.9c0.6-0.2,1.2,0,1.5,0.6l0.4,1c0.2,0.6,0,1.2-0.6,1.5L236.7,140z"/>
		<path class="st17" d="M232.2,137.8l3.1-1.3l-2.9-7.2c-0.2-0.6-0.9-0.8-1.5-0.6l-1,0.4c-0.6,0.2-0.8,0.9-0.6,1.5L232.2,137.8z"/>
		<circle class="st18" cx="234.2" cy="139" r="4"/>
		<line class="st2" x1="88.3" y1="63.2" x2="248.2" y2="63.2"/>
		<line class="st19" x1="88.3" y1="142.2" x2="88.3" y2="79.6"/>
		<line class="st19" x1="88.3" y1="246.5" x2="88.3" y2="142.2"/>
		<line class="st15" x1="264" y1="263.2" x2="104.1" y2="263.2"/>
		<line class="st19" x1="264" y1="211" x2="264" y2="245.6"/>
		<line class="st19" x1="264" y1="80.8" x2="264" y2="211"/>
		<path class="st19" d="M104.1,263.2c-8.7,0-15.8-7.9-15.8-17.6"/>
		<path class="st20" d="M88.3,80.8c0-9.7-7.1-17.6-15.9-17.6s-15.9,7.9-15.9,17.6H88.3z"/>
		<path class="st19" d="M248.2,63.2c8.7,0,15.8,7.9,15.8,17.6"/>
		<path class="st20" d="M104.1,263.2c8.7,0,15.8-7.9,15.8-17.6h175.9c0,9.7-7.1,17.6-15.8,17.6h-16H104.1z"/>
		<line class="st2" x1="72.4" y1="63.2" x2="88.3" y2="63.2"/>
	</g>
	<g>
		<path class="st21" d="M292,118.4l2.1,2.1c1.2,1.2,1.2,3.1,0,4.2l-26.4,26.4l-6.3-6.3l26.4-26.4C288.9,117.3,290.8,117.3,292,118.4
			z"/>
		<path class="st22" d="M292,118.4l2.1,2.1c1.2,1.2,1.2,3.1,0,4.2l-2,2l-6.3-6.3l2-2C288.9,117.3,290.8,117.3,292,118.4z"/>
		<line class="st23" x1="289" y1="123.6" x2="256.1" y2="156.4"/>
		<polyline class="st24" points="266.7,152.2 257.9,155.6 256.4,156.2 260.4,145.8 		"/>
		<polyline class="st25" points="261.4,154 257.9,155 257.3,155.2 258.5,151.1 		"/>
	</g>
	<g>
		<line class="st23" x1="81.5" y1="195.5" x2="81.6" y2="186.8"/>
		<line class="st23" x1="70.5" y1="198.3" x2="65.8" y2="191"/>
		<line class="st23" x1="63.7" y1="209.2" x2="55.2" y2="207.6"/>
		<g>
			<path class="st26" d="M82.1,241.5c-0.1,0-0.1,0-0.2,0c-0.9-0.1-1.8-0.7-2.1-1.6l-3.7-9.6l-10-2.4c-0.9-0.2-1.6-0.9-1.9-1.9
				c-0.2-0.9,0.1-1.9,0.9-2.5L73,217l-0.8-10.2c-0.1-0.9,0.4-1.9,1.2-2.3c0.4-0.2,0.8-0.4,1.3-0.4s0.9,0.1,1.4,0.4l8.6,5.6l9.5-4
				c0.3-0.1,0.6-0.2,1-0.2c0.6,0,1.2,0.2,1.6,0.6c0.7,0.6,1,1.6,0.8,2.5l-2.6,9.9l6.7,7.8c0.6,0.7,0.8,1.7,0.4,2.6
				c-0.4,0.9-1.2,1.5-2.2,1.5l-10.2,0.6l-5.3,8.8C83.8,241.1,83,241.5,82.1,241.5z"/>
			<path class="st25" d="M74.7,206.7l9.7,6.3l10.7-4.5l-2.9,11.2l7.6,8.8l-11.6,0.7l-6,9.9L78,228.3l-11.3-2.7l9-7.3L74.7,206.7
				 M74.7,201.7c-0.9,0-1.8,0.2-2.6,0.7c-1.6,1-2.6,2.8-2.4,4.7l0.7,8.9l-6.9,5.7c-1.5,1.2-2.1,3.1-1.7,5c0.4,1.9,1.9,3.3,3.7,3.7
				l8.7,2.1l3.2,8.3c0.7,1.8,2.3,3,4.2,3.2c0.1,0,0.3,0,0.4,0c1.7,0,3.4-0.9,4.3-2.4l4.6-7.7l8.9-0.5c1.9-0.1,3.6-1.3,4.3-3
				c0.7-1.8,0.4-3.8-0.8-5.2l-5.8-6.8l2.3-8.7c0.5-1.8-0.1-3.8-1.6-5c-0.9-0.8-2.1-1.2-3.3-1.2c-0.7,0-1.3,0.1-1.9,0.4l-8.3,3.5
				l-7.5-4.8C76.6,202,75.6,201.7,74.7,201.7L74.7,201.7z"/>
		</g>
	</g>
	<g>
		<path class="st27" d="M294.4,173.8c-2.2-1-4.4-1.5-6.6-1.7c4.8,5.2,6.3,12.9,3.1,19.7c-3.2,6.8-10.1,10.7-17.1,10.3
			c1.5,1.6,3.4,3,5.5,4c9,4.2,19.6,0.3,23.8-8.6C307.2,188.6,303.3,177.9,294.4,173.8z"/>
	</g>
	<path class="st28" d="M298.4,48.3c1.6,0,3.3,0,4.9,0"/>
	<path class="st28" d="M274.7,48.3c5,0,10.1,0,15.1,0"/>
	<path class="st28" d="M197.9,48.3c8,0,16.1,0,24.1,0"/>
	<path class="st28" d="M184.1,48.3c1.8,0,3.5,0,5.3,0"/>
	<path class="st28" d="M168.1,48.3c2.5,0,4.9,0,7.4,0"/>
	<path class="st28" d="M107.4,48.3c16,0,32.1,0,48.1,0"/>
	<path class="st28" d="M62.2,48.3c2.6,0,5.2,0,7.8,0"/>
	<path class="st28" d="M43.1,48.3c2.9,0,5.3,0,8.4,0"/>
	<path class="st28" d="M290.9,40.1c1.6,0,3.3,0,4.9,0"/>
	<path class="st28" d="M277,40.1c1.8,0,3.5,0,5.3,0"/>
	<path class="st28" d="M99.7,40.1c56.3,0,112.4,0,168.7,0"/>
	<path class="st28" d="M307.3,97.4c3.3,0,6.5,0,9.8,0"/>
	<path class="st28" d="M289.7,97.4c3.4,0,6.8,0,10.2,0"/>
	<path class="st28" d="M264,97.4c4.8,0,9.5,0,14.3,0"/>
	<path class="st28" d="M316.9,123.7c2.3,0,4.6,0,6.9,0"/>
	<path class="st28" d="M304.2,123.7c1.2,0,2.4,0,3.7,0"/>
	<path class="st28" d="M264,123.7c3.5,0,7,0,10.6,0"/>
	<path class="st28" d="M85.1,97.4c1.1,0,2.2,0,3.3,0"/>
	<path class="st28" d="M70.4,97.4c2.4,0,4.9,0,7.3,0"/>
	<path class="st28" d="M275.8,88c10.7,0,21.5,0,32.2,0"/>
	<path class="st28" d="M264,88c1.5,0,3,0,4.5,0"/>
	<path class="st28" d="M59.3,88c9.7,0,19.3,0,29,0"/>
	<path class="st28" d="M81.8,123.7c2.2,0,4.4,0,6.5,0"/>
	<path class="st28" d="M29.5,123.7c14.4,0,28.9,0,43.3,0"/>
	<path class="st28" d="M40.1,88c4,0,7.9,0,11.9,0"/>
	<path class="st28" d="M29.5,88c1.1,0,2.2,0,3.3,0"/>
	<path class="st28" d="M57.8,40.1c2,0,4,0,6,0"/>
	<path class="st28" d="M36,40.1c2.1,0,4.3,0,6.4,0"/>
	<path class="st28" d="M308,31.9c1.4,0,2.7,0,4.1,0"/>
	<path class="st28" d="M294.5,31.9c1.6,0,3.3,0,4.9,0"/>
	<path class="st28" d="M262.2,31.9c7.9,0,15.8,0,23.7,0"/>
	<path class="st28" d="M210.7,31.9c9.5,0,18.9,0,28.4,0"/>
	<path class="st28" d="M130.3,31.9c15.6,0,31.1,0,46.7,0"/>
	<path class="st28" d="M63.9,31.9c13.3,0,26.6,0,40,0"/>
	<path class="st28" d="M46.6,31.9c3.5,0,6.4,0,10.2,0"/>
	<path class="st28" d="M73.6,288.6c-4.2,0-8.4,0-12.6,0H73.6L73.6,288.6z"/>
	<path class="st28" d="M288.7,288.6c-6.6,0-13.3,0-19.9,0"/>
	<path class="st28" d="M303.3,288.6c-2,0-4.1,0-6.1,0"/>
	<path class="st28" d="M235.8,288.6c-18.9,0-37.7,0-56.6,0l0,0H235.8L235.8,288.6z"/>
	<path class="st28" d="M172.6,288.6c-2.7,0-5.5,0-8.2,0C167.1,288.6,169.8,288.6,172.6,288.6"/>
	<path class="st28" d="M146.3,288.6c-22.4,0-44.7,0-67.1,0l0,0H146.3L146.3,288.6z"/>
	<path class="st28" d="M43.1,288.6c2.9,0,6.4,0,9.6,0"/>
	<path class="st28" d="M287.8,280.4c2.6,0,5.5,0,7.9,0"/>
	<path class="st28" d="M279.5,280.4c-25.9,0-51.7,0-77.5,0l0,0H279.5z"/>
	<path class="st28" d="M111.4,280.4L111.4,280.4h68.1l0,0C156.8,280.4,134.1,280.4,111.4,280.4z"/>
	<path class="st28" d="M94.2,280.4h8.5l0,0C99.9,280.4,97,280.4,94.2,280.4L94.2,280.4z"/>
	<path class="st28" d="M81,280.4L81,280.4h8l0,0C86.3,280.4,83.6,280.4,81,280.4z"/>
	<path class="st28" d="M52.2,280.4c7.8,0,15.4,0,23.1,0"/>
	<path class="st28" d="M43.7,280.4c-2.6,0-5.1,0-7.7,0C38.6,280.4,41.2,280.4,43.7,280.4"/>
	<path class="st28" d="M75.3,280.4c-7.7,0-15.4,0-23.1,0"/>
	<path class="st28" d="M242,272.3c-2.8,0-5.7,0-8.5,0l0,0H242L242,272.3z"/>
	<path class="st28" d="M303.2,272.3h8.8C309.1,272.3,306.2,272.3,303.2,272.3L303.2,272.3z"/>
	<path class="st28" d="M292.2,272.3c-8.8,0-17.7,0-26.5,0l0,0H292.2L292.2,272.3z"/>
	<path class="st28" d="M260.2,272.3c-4.2,0-8.4,0-12.6,0l0,0H260.2L260.2,272.3z"/>
	<path class="st28" d="M228,272.3c-10.8,0-21.6,0-32.5,0l0,0H228L228,272.3z"/>
	<path class="st28" d="M190,272.3c-5.5,0-11.1,0-16.6,0l0,0H190L190,272.3z"/>
	<path class="st28" d="M167.7,272.3c-2.5,0-4.9,0-7.4,0H167.7L167.7,272.3z"/>
	<path class="st28" d="M78.9,272.3c-10.8,0-21.5,0-32.3,0H78.9L78.9,272.3z"/>
	<path class="st28" d="M96.3,272.3h55.8C133.4,272.3,114.8,272.3,96.3,272.3L96.3,272.3z"/>
	<g>
		<path class="st29" d="M114,72.1c-1-1.1-2.1-2.7-3.1-4.7c-0.5-1.1-0.9-2.1-1.1-3c-0.2-0.6-0.4-1.4-0.5-2.4s0-1.5,0-2.2
			c0-0.5,0.1-2.9-1.8-5.1c-1.2-1.4-2.9-2.3-4.9-2.4l-1.6-0.1c-0.5,0-2.6,0-4.5,1.2c-0.3,0.2-0.6,0.5-0.9,0.7
			C94.7,55,94.2,56,94,56.6c-0.3,0.6-0.6,1.4-0.6,2.4c0,0.5,0,0.9,0,1.3c0,0.6-0.1,2.9,1.6,4.9c1.1,1.3,2.3,1.9,3,2.2
			c0.8,0.2,1.6,0.5,2.3,0.7C104.9,69.4,109.5,70.8,114,72.1z"/>
		<path class="st29" d="M111.5,67.5"/>
		<path class="st29" d="M82.1,53.1"/>
		<path class="st29" d="M98.7,64.1"/>
		<path class="st29" d="M103.4,69"/>
		<path class="st29" d="M109.8,67.1"/>
		<path class="st14" d="M97.1,53.6c0,0-1.4,4.5-1.1,6c0.3,1.2,1.8,3.3,2.8,4.1c1.2,1.1,4.3,2.2,5.9,2.8c2.1,0.8,7.8,2.2,7.6,4.4"/>
		<path class="st14" d="M98.3,53.3c-0.1,1.5,0.2,4.6,0.9,5.9c0.7,1.4,3.1,3.6,4.4,4.6c2.2,1.7,8.4,4.9,8.2,7.7"/>
		<path class="st14" d="M98.6,53.1c0,0,4.4,1.8,5.5,2.9c1.4,1.5,2.5,5.6,3.5,7.4c1.1,2.1,5.2,5.8,5,8.2"/>
		<path class="st30" d="M96.6,53.4c-4.3,3.1-13.8-8.6-16.5-13.2C75.9,32.9,67,9.2,67,9.2S83.9,27,89,33.4
			C92.3,37.5,100.9,50.3,96.6,53.4z"/>
	</g>
	<g>
		<circle class="st31" cx="265.4" cy="61.6" r="19"/>
		<polyline class="st32" points="256,61.2 263.5,68.4 276,56.5 		"/>
	</g>
	<path class="st33" d="M46.4,60.1c5,0,9.9,0,14.9,0"/>
	<path class="st33" d="M32.7,60.1c1.8,0,3.6,0,5.3,0"/>
	<path class="st33" d="M75.7,263.6c5,0,9.9,0,14.9,0"/>
	<path class="st33" d="M292.6,263.6c5,0,9.9,0,14.9,0"/>
	<path class="st33" d="M62,263.6c1.8,0,3.6,0,5.3,0"/>
	<path class="st33" d="M297.9,60.1c5,0,9.9,0,14.9,0"/>
	<path class="st33" d="M284.2,60.1c1.8,0,3.6,0,5.3,0"/>
	<line class="st34" x1="312.8" y1="88" x2="317.1" y2="88"/>
	<path class="st28" d="M37.5,97.1c-1.8,0-3.6,0-5.4,0"/>
	<polygon class="st35" points="67.6,107.3 55.6,111.8 51.1,99.9 41.9,103.3 46.4,115.3 34.5,119.8 37.9,129 49.9,124.5 54.4,136.4 
		63.6,133 59.1,121 71,116.5 	"/>
	<path class="st28" d="M311,142.9c0.9,0,1.9,0,2.8,0"/>
	<path class="st28" d="M286.3,142.9c5.7,0,11.4,0,17.1,0"/>
	<path class="st28" d="M65.1,142.9h-4.8C61.9,142.9,63.5,142.9,65.1,142.9L65.1,142.9z"/>
	<path class="st28" d="M88.3,142.9h-5.2l0,0C84.8,142.9,86.6,142.9,88.3,142.9z"/>
	<path class="st28" d="M77.5,142.9h-6.9c0,0,0,0,0,0.1C72.8,143,75.2,143,77.5,142.9C77.5,143,77.5,142.9,77.5,142.9z"/>
	<path class="st28" d="M40.4,142.9c4.1,0,8.2,0,12.4,0"/>
	<path class="st28" d="M303.5,152.3c1.5,0,2.9,0,4.4,0"/>
	<path class="st28" d="M275.8,152.3c6.4,0.1,13.5,0.1,20.1,0"/>
	<path class="st28" d="M65.1,152.3H46.7C52.9,152.3,59,152.3,65.1,152.3L65.1,152.3z"/>
	<path class="st28" d="M70.5,152.3L70.5,152.3c5.9,0.1,11.7,0,17.8,0H70.5z"/>
	<path class="st28" d="M34.5,152.3c1.5,0,3.1,0,4.6,0"/>
	<path class="st28" d="M310.5,169.8c1.1,0,2.2,0,3.3,0"/>
	<path class="st28" d="M294.1,169.8C294.1,169.8,294.1,169.9,294.1,169.8c2.9,0,5.9,0,8.9,0H294.1z"/>
	<path class="st28" d="M278.6,169.8H264C268.9,169.9,273.8,169.9,278.6,169.8C278.6,169.9,278.6,169.8,278.6,169.8z"/>
	<path class="st28" d="M73.5,169.8c4.6,0.1,9.9,0.1,14.8,0"/>
	<path class="st28" d="M46.8,169.8h-6.4C42.5,169.8,44.6,169.9,46.8,169.8C46.8,169.9,46.8,169.8,46.8,169.8z"/>
	<path class="st28" d="M52.2,169.8C52.2,169.8,52.2,169.9,52.2,169.8c4.5,0.1,9,0.1,13.8,0H52.2z"/>
	<path class="st28" d="M313.3,179.2c1.7,0,3.4,0,5.2,0"/>
	<path class="st28" d="M264,179.2c6,0.1,12.4,0.1,18,0"/>
	<path class="st28" d="M78,179.2H64.2C68.9,179.2,73.4,179.3,78,179.2L78,179.2z"/>
	<path class="st28" d="M88.3,179.2h-4.9l0,0C85,179.2,86.6,179.2,88.3,179.2z"/>
	<path class="st28" d="M45,179.2c3.9,0,7.7,0,11.6,0"/>
	<path class="st28" d="M309,202.6c1.6,0,3.2,0,4.8,0"/>
	<path class="st28" d="M264,202.6c2.1,0,4.2,0,6.3,0"/>
	<path class="st28" d="M82.2,202.6L82.2,202.6c2,0,4,0,6.1,0H82.2z"/>
	<path class="st28" d="M40.4,202.6c4.6,0,9.2,0,13.8,0"/>
	<line class="st34" x1="34.5" y1="212.9" x2="46.6" y2="212.9"/>
	<line class="st34" x1="264" y1="228.9" x2="313.8" y2="228.9"/>
	<path class="st28" d="M307.9,222.4c2,0,3.9,0,5.9,0"/>
	<path class="st28" d="M283.4,222.4c5.6,0,11.3,0,16.9,0"/>
	<line class="st34" x1="40.4" y1="228.9" x2="57.7" y2="228.9"/>
	<line class="st34" x1="264" y1="237.7" x2="318.5" y2="237.7"/>
	<line class="st34" x1="45" y1="237.7" x2="71" y2="237.7"/>
</g>
</svg>
