<?xml version="1.0" encoding="utf-8"?>
<!-- Generator: Adobe Illustrator 22.0.1, SVG Export Plug-In . SVG Version: 6.00 Build 0)  -->
<svg version="1.1" id="Layer_1" xmlns="http://www.w3.org/2000/svg" xmlns:xlink="http://www.w3.org/1999/xlink" x="0px" y="0px"
	 viewBox="0 0 350 300" style="enable-background:new 0 0 350 300;" xml:space="preserve">
<style type="text/css">
	.st0{fill:#F16667;stroke:#353334;stroke-width:5;stroke-linecap:round;stroke-linejoin:round;}
	.st1{fill:#CA9A2C;stroke:#353334;stroke-width:3;stroke-miterlimit:10;}
	.st2{fill:#EFB3A7;stroke:#353334;stroke-width:5;stroke-linecap:round;stroke-linejoin:round;}
	.st3{fill:none;stroke:#353334;stroke-width:2;stroke-linecap:round;stroke-linejoin:round;}
	.st4{fill:#7DC2B1;}
	.st5{fill:#353334;}
	.st6{fill:#7DC2B1;stroke:#353334;stroke-width:5;stroke-linecap:round;stroke-linejoin:round;}
	.st7{fill:#49786E;stroke:#353334;stroke-width:2;stroke-linecap:round;stroke-linejoin:round;}
	.st8{fill:none;stroke:#353334;stroke-linecap:round;stroke-linejoin:round;}
	.st9{fill:#353334;stroke:#353334;stroke-linecap:round;stroke-linejoin:round;}
	.st10{fill:#60988B;stroke:#353334;stroke-width:0.25;stroke-miterlimit:10;}
	.st11{fill:#333232;stroke:#353334;stroke-width:0.25;stroke-miterlimit:10;}
	.st12{fill:#FFFFFF;stroke:#353334;stroke-width:0.25;stroke-miterlimit:10;}
	.st13{fill:#9E791F;stroke:#353334;stroke-width:0.25;stroke-miterlimit:10;}
	.st14{fill:#353334;stroke:#353334;stroke-width:0.25;stroke-miterlimit:10;}
	.st15{fill:#FFFFFF;stroke:#FFFFFF;stroke-linecap:round;stroke-linejoin:round;}
	.st16{fill:#CA9A2C;stroke:#353334;stroke-width:4;stroke-miterlimit:10;}
	.st17{fill:#FFFFFF;stroke:#353334;stroke-width:4;stroke-miterlimit:10;}
	.st18{fill:none;stroke:#353334;stroke-width:2;stroke-miterlimit:10;}
	.st19{fill:#353334;stroke:#353334;stroke-width:3;stroke-miterlimit:10;}
	.st20{fill:#F16667;stroke:#353334;stroke-width:3;stroke-linecap:round;stroke-linejoin:round;}
</style>
<title>wedding</title>
<path class="st0" d="M195.9,44.7c0.1-6.6-5.2-11.9-11.7-12l0,0c-3.4,0-6.6,1.5-8.8,4.1c-2.2-2.5-5.4-4-8.8-4
	c-6.5,0.1-11.8,5.5-11.7,12c0,4.1,2.1,8,5.6,10.2l15,10.2l14.9-10.3C193.9,52.7,196,48.8,195.9,44.7z"/>
<polygon class="st1" points="191.6,74.7 182,70.4 188.6,80.8 "/>
<path class="st2" d="M250.2,106.9l-17.7-8.4l0.4-0.2c1.9-1.1,3.3-2.8,4.1-4.8l1.7-4.3c0.2-0.5,0.4-1,0.5-1.5l2.9-10.5l-28,12.7
	l-1-0.5c1.1-1.5,1.8-3.2,2.1-5c1.1-6.9-3.9-13.4-11.1-14.6s-14,3.5-15.2,10.4c-0.8,6.1,2.7,11.9,8.5,13.8c-0.5,1.4-0.9,2.8-1.1,4.3
	c-2.2,13.4,8.1,26.2,23,28.6c11.2,1.8,21.8-2.8,27.3-10.8l13.8-4.8L250.2,106.9z"/>
<polygon class="st1" points="159.5,74.7 169.1,70.4 162.4,80.8 "/>
<path class="st2" d="M162.1,80.2c-1.1-6.9-7.9-11.5-15.1-10.4s-12.2,7.7-11.1,14.6c0.3,1.8,1,3.5,2,5l-1,0.5L109,77.2l2.9,10.5
	c0.1,0.5,0.3,1,0.5,1.5l1.7,4.3c0.8,2,2.3,3.7,4.1,4.8l0.4,0.2l-17.7,8.4l-10.1,4.3l13.7,4.8c5.5,8.1,16.1,12.6,27.3,10.8
	c14.9-2.4,25.2-15.2,23-28.6c-0.2-1.5-0.6-2.9-1.1-4.3C159.4,92,163,86.2,162.1,80.2z"/>
<path class="st3" d="M198,76.6l1-0.6c0.7-0.4,1.6-0.2,2,0.4c0.2,0.3,0.2,0.5,0.2,0.8l-0.2,1.6"/>
<path class="st3" d="M153.1,76.6l-1-0.6c-0.7-0.4-1.6-0.2-2,0.4c-0.2,0.3-0.2,0.5-0.2,0.8l0.1,1.6"/>
<path class="st4" d="M135.4,232.3h82.4c1.4,0,2.5,1.1,2.5,2.5v51.7c0,1.4-1.1,2.5-2.5,2.5h-82.4c-1.4,0-2.5-1.1-2.5-2.5v-51.7
	C132.9,233.4,134,232.3,135.4,232.3z"/>
<path class="st5" d="M217.8,234.8v51.7h-82.4v-51.7H217.8 M217.8,229.8h-82.4c-2.8,0-5,2.2-5,5v51.7c0,2.8,2.2,5,5,5h82.4
	c2.8,0,5-2.2,5-5v-51.7C222.8,232.1,220.5,229.8,217.8,229.8z"/>
<path class="st6" d="M135.4,232.8l39.9-24.7c0.8-0.5,1.8-0.5,2.7,0l39.9,24.7"/>
<path class="st6" d="M135.4,236.7l39.9,24.7c0.8,0.5,1.8,0.5,2.7,0l39.9-24.7"/>
<path class="st7" d="M213.3,235.7v0.3h-73.5v-0.3l35.4-21.4c0.8-0.5,1.8-0.5,2.7,0L213.3,235.7z"/>
<path class="st0" d="M199.8,237.7c-2.1-6.3-7-10.7-12.8-10.7c-4.1,0-7.9,2.3-10.4,5.9c-2.6-3.6-6.3-5.9-10.4-5.9
	c-5.8,0-10.7,4.4-12.8,10.7c-0.7,2.2-1.1,4.5-1.1,6.8c0,0.5,0,1,0.1,1.5l23,15.9c0.6,0.4,1.4,0.5,2.1,0.1c0.1,0,0.2-0.1,0.2-0.1
	l23-15.9c0-0.5,0.1-1,0.1-1.5C200.8,242.2,200.4,239.9,199.8,237.7z"/>
<path class="st0" d="M209.7,233.6c1.6-3.1,5-4.6,7.6-3.3c1.4,0.8,2.3,2.2,2.5,3.7c1.4-0.8,3-0.8,4.5-0.1c2.6,1.3,3.3,5,1.6,8.1
	c-0.9,1.9-2.7,3.3-4.7,3.7l-8.4,1.8l-3.3-7.9C208.5,237.6,208.7,235.4,209.7,233.6z"/>
<path class="st0" d="M204.1,205.6c1.2-4.7,5.9-7.5,10.5-6.3c2.4,0.6,4.4,2.2,5.6,4.3c3.9-2.7,9.4-1.8,12.1,2.2
	c1.4,2,1.9,4.5,1.3,6.9c-0.7,2.9-2.9,5.2-5.7,6.1l-12.5,4.6l-9-9.7C204.3,211.6,203.4,208.5,204.1,205.6z"/>
<path class="st0" d="M187.2,150.5c1.1-4.2,5.3-6.7,9.5-5.7c2.1,0.5,3.9,2,5,3.9c3.5-2.5,8.4-1.6,10.9,1.9c1.3,1.8,1.7,4.1,1.2,6.2
	c-0.6,2.6-2.6,4.7-5.1,5.5l-11.2,4.1l-8.1-8.7C187.4,155.8,186.6,153.1,187.2,150.5z"/>
<path class="st0" d="M173.8,206.9c-1-4.1-4.5-6.7-7.8-5.9c-1.8,0.5-3.3,1.8-4,3.6c-1.4-1.3-3.3-1.8-5.1-1.4
	c-3.4,0.8-5.3,4.8-4.3,8.8c0.5,2.4,2.1,4.5,4.4,5.6l9.3,4.5l6.2-8.1C174,211.9,174.5,209.3,173.8,206.9z"/>
<path class="st0" d="M114.3,240.5c-2.5-4.4-1-9.9,3.4-12.4c2.3-1.4,5-1.7,7.5-0.9c0.5-2.6,2.1-4.8,4.4-6.1c4.3-2.6,9.9-1.3,12.5,3
	c1.6,2.7,1.6,6.1,0.1,8.8l-6.2,12.6l-14-0.6C118.8,244.9,115.9,243.2,114.3,240.5z"/>
<line class="st8" x1="130.9" y1="197.8" x2="132.5" y2="191.9"/>
<line class="st8" x1="127.2" y1="211.2" x2="128.8" y2="205.3"/>
<line class="st8" x1="126.1" y1="200.5" x2="120.2" y2="198.9"/>
<line class="st8" x1="139.5" y1="204.2" x2="133.6" y2="202.6"/>
<line class="st8" x1="219.1" y1="186.5" x2="217.3" y2="182.9"/>
<line class="st8" x1="223.2" y1="194.8" x2="221.4" y2="191.2"/>
<line class="st8" x1="218.2" y1="190.1" x2="214.9" y2="192.2"/>
<line class="st8" x1="225.6" y1="185.5" x2="222.3" y2="187.6"/>
<line class="st8" x1="151.7" y1="172" x2="147.6" y2="167.5"/>
<line class="st8" x1="159.6" y1="180.8" x2="155.5" y2="176.3"/>
<line class="st8" x1="151.4" y1="175.9" x2="147" y2="179.7"/>
<line class="st8" x1="160.2" y1="168.6" x2="155.7" y2="172.4"/>
<line class="st8" x1="188.1" y1="193" x2="190.1" y2="188.3"/>
<line class="st8" x1="183.6" y1="203.6" x2="185.6" y2="198.9"/>
<line class="st8" x1="183.9" y1="194.9" x2="179.3" y2="193.3"/>
<line class="st8" x1="194.4" y1="198.5" x2="189.8" y2="196.9"/>
<circle class="st9" cx="128.1" cy="176.3" r="2.2"/>
<circle class="st9" cx="154" cy="190.9" r="2.2"/>
<line class="st8" x1="109.4" y1="169.6" x2="105.3" y2="174.1"/>
<line class="st8" x1="117.3" y1="160.8" x2="113.2" y2="165.3"/>
<line class="st8" x1="109.2" y1="165.7" x2="104.7" y2="161.9"/>
<line class="st8" x1="118" y1="173" x2="113.5" y2="169.2"/>
<circle class="st9" cx="111.7" cy="150.7" r="2.2"/>
<line class="st8" x1="79.9" y1="97.9" x2="73.8" y2="97.2"/>
<line class="st8" x1="91.6" y1="99.4" x2="85.6" y2="98.6"/>
<line class="st8" x1="82.9" y1="95.5" x2="83.5" y2="89.7"/>
<line class="st8" x1="82" y1="106.9" x2="82.5" y2="101"/>
<circle class="st9" cx="96.7" cy="89" r="2.2"/>
<circle class="st9" cx="182.5" cy="177" r="2.2"/>
<line class="st8" x1="237.7" y1="167.1" x2="239.7" y2="171.8"/>
<line class="st8" x1="233.2" y1="156.5" x2="235.2" y2="161.2"/>
<line class="st8" x1="233.5" y1="165.1" x2="228.9" y2="166.7"/>
<line class="st8" x1="244" y1="161.5" x2="239.4" y2="163.1"/>
<circle class="st9" cx="238.2" cy="185.5" r="2.2"/>
<circle class="st9" cx="204.1" cy="183.9" r="2.2"/>
<line class="st8" x1="305.7" y1="90.2" x2="305.2" y2="86.1"/>
<line class="st8" x1="306.9" y1="99.4" x2="306.4" y2="95.3"/>
<line class="st8" x1="303.7" y1="93.3" x2="299.9" y2="94.2"/>
<line class="st8" x1="312.2" y1="91.4" x2="308.4" y2="92.2"/>
<circle class="st9" cx="292.4" cy="82.9" r="2.2"/>
<circle class="st9" cx="121.9" cy="254.2" r="2.2"/>
<circle class="st9" cx="113.5" cy="215.3" r="2.2"/>
<path class="st10" d="M253.6,54.6l4-6.5l6.3,6.7l-1.6,1.6c-0.8-0.1-1.6-0.5-2.1-1.1L253.6,54.6z"/>
<path class="st10" d="M264.1,44.2l-6.4,3.9l6.3,6.7l1.6-1.6c0-0.8-0.4-1.6-1-2.2L264.1,44.2z"/>
<path class="st11" d="M257.6,47.7c0.1,0,0.2,0,0.3,0.1l6.3,6.7c0.2,0.2,0.2,0.4,0,0.6l-1.6,1.6c-0.1,0.1-0.2,0.1-0.3,0.1
	c-0.9-0.1-1.7-0.5-2.3-1.1l-6.4-0.7c-0.2,0-0.4-0.2-0.4-0.4l0,0c0-0.1,0-0.1,0.1-0.2l4-6.5C257.4,47.8,257.5,47.7,257.6,47.7z
	 M257.7,48.8l-3.4,5.5l5.9,0.7c0.1,0,0.2,0.1,0.2,0.1c0.4,0.5,1,0.9,1.7,1l1.2-1.2L257.7,48.8z"/>
<path class="st11" d="M264,43.8c0.2,0,0.4,0.2,0.4,0.4l0.5,6.6c0.6,0.6,1,1.5,1,2.4c0,0.1,0,0.2-0.1,0.3l-1.6,1.6
	c-0.2,0.2-0.4,0.2-0.6,0l0,0l-6.3-6.7c-0.2-0.2-0.2-0.4,0-0.6l0.1-0.1l6.4-3.9C263.9,43.8,264,43.8,264,43.8z M263.7,44.9l-5.4,3.3
	l5.7,6l1.2-1.2c-0.1-0.7-0.4-1.3-0.9-1.8c-0.1-0.1-0.1-0.2-0.1-0.3L263.7,44.9z"/>
<polygon class="st12" points="253.6,54.6 260.6,51.3 258.7,50.5 256.3,50.3 254.7,52.1 "/>
<polygon class="st12" points="264.1,44.2 260.6,51.3 259.9,49.3 259.8,46.8 261.6,45.2 "/>
<path class="st11" d="M256.3,49.8L256.3,49.8l2.5,0.2h0.1l1.9,0.8c0.2,0.1,0.3,0.3,0.2,0.5c0,0.1-0.1,0.2-0.2,0.2l-7,3.3
	c-0.2,0.1-0.4,0-0.5-0.2c-0.1-0.1-0.1-0.2,0-0.3l1.1-2.5c0,0,0-0.1,0.1-0.1L256,50C256.1,49.9,256.2,49.9,256.3,49.8z M256.5,50.7
	l-1.5,1.7l-0.6,1.4l5.2-2.5l-0.9-0.4L256.5,50.7z"/>
<path class="st11" d="M264.1,43.8c0.2,0,0.4,0.2,0.4,0.4l0,0c0,0.1,0,0.1,0,0.2l-3.5,7c-0.1,0.2-0.3,0.3-0.5,0.2l0,0
	c-0.1,0-0.2-0.1-0.2-0.2l-0.7-1.9v-0.1l-0.1-2.5c0-0.1,0-0.3,0.1-0.3l1.9-1.6l0.1-0.1L264.1,43.8C264,43.8,264.1,43.8,264.1,43.8z
	 M263.2,45l-1.4,0.6l-1.6,1.4l0.1,2.2l0.4,1L263.2,45z"/>
<polygon class="st12" points="256.5,46.9 259.4,44.6 260,45.5 259.8,46.8 258.5,49 256.3,50.3 255,50.4 254.1,49.8 "/>
<path class="st11" d="M259.4,44.2c0.1,0,0.2,0.1,0.3,0.2l0.6,0.9c0,0.1,0.1,0.2,0.1,0.3l-0.2,1.3c0,0.1,0,0.1,0,0.2l-1.3,2.2
	c0,0.1-0.1,0.1-0.1,0.2l-2.2,1.2h-0.1l-1.3,0.2c-0.1,0-0.2,0-0.3-0.1l-0.9-0.7c-0.2-0.1-0.2-0.4-0.1-0.6l0,0l2.3-2.9l0.1-0.1
	l2.9-2.3C259.2,44.2,259.3,44.2,259.4,44.2z M259.3,45.2l-2.5,2l-2,2.5l0.4,0.3l1.1-0.1l2-1.1l1.2-2l0.2-1.1L259.3,45.2z"/>
<polygon class="st10" points="259.8,46.8 260.6,51.3 256.3,50.3 "/>
<polygon class="st10" points="264.1,44.2 259.4,44.6 259.8,46.8 "/>
<polygon class="st10" points="253.6,54.6 254.1,49.8 256.3,50.3 "/>
<path class="st11" d="M259.8,46.4c0.2,0,0.4,0.1,0.4,0.3l0.8,4.4c0,0.2-0.1,0.4-0.3,0.5c-0.1,0-0.1,0-0.2,0l-4.3-1
	c-0.2-0.1-0.4-0.3-0.3-0.5c0-0.1,0-0.1,0.1-0.2l3.5-3.4C259.5,46.5,259.7,46.4,259.8,46.4z M259.5,47.7l-2.4,2.3l3,0.7L259.5,47.7z"
	/>
<path class="st11" d="M264.1,43.8c0.2,0,0.4,0.2,0.4,0.4l0,0c0,0.1-0.1,0.3-0.2,0.3l-4.3,2.6c-0.2,0.1-0.4,0-0.5-0.1l0,0v-0.1
	l-0.4-2.2c0-0.2,0.1-0.4,0.3-0.5l0,0L264.1,43.8z M262.4,44.8l-2.5,0.2l0.2,1.2L262.4,44.8z"/>
<path class="st11" d="M254.1,49.3L254.1,49.3l2.3,0.5c0.2,0,0.4,0.3,0.3,0.5l0,0c0,0,0,0.1-0.1,0.1l-2.6,4.3
	c-0.1,0.2-0.4,0.3-0.5,0.1l0,0c-0.1-0.1-0.2-0.2-0.2-0.4l0.5-4.8C253.8,49.5,253.9,49.3,254.1,49.3z M254.5,50.3l-0.3,2.6l1.4-2.3
	L254.5,50.3z"/>
<path class="st12" d="M262.1,52.8c0.3-0.3,2.2,1,2.6,0.9s0.3-2-0.1-2.7c1.7,0.4,1.1,2.4,1.9,3.3l-1.6,1.5l-1.6,1.5
	c-0.8-0.9-2.9-0.4-3.1-2.1c0.7,0.4,2.5,0.5,2.6,0.2S261.8,53.1,262.1,52.8z"/>
<path class="st11" d="M264.5,50.5L264.5,50.5c0.5,0.1,0.9,0.3,1.2,0.7c0.2,0.3,0.4,0.7,0.5,1c0.1,0.6,0.2,1.2,0.5,1.7
	c0.2,0.2,0.2,0.4,0,0.6l-1.6,1.5l-1.6,1.5c-0.1,0.2-0.4,0.2-0.6,0l0,0c-0.5-0.3-1-0.5-1.6-0.6c-0.4-0.1-0.7-0.3-1-0.5
	c-0.3-0.3-0.6-0.7-0.6-1.2c0-0.2,0.1-0.4,0.3-0.5c0.1,0,0.2,0,0.3,0.1c0.4,0.2,0.9,0.3,1.3,0.3c0.2,0,0.4,0,0.6,0l0,0V55
	c-0.1-0.2-0.2-0.5-0.3-0.8s-0.2-0.6-0.3-0.9c0-0.1-0.1-0.3-0.1-0.4c0-0.2,0-0.4,0.2-0.5c0.1-0.1,0.3-0.2,0.5-0.1
	c0.1,0,0.3,0,0.4,0.1c0.3,0.1,0.6,0.2,0.8,0.4l0.8,0.4h0.1l0,0c0-0.2,0-0.4,0-0.7c0-0.5-0.1-0.9-0.3-1.4c-0.1-0.2,0-0.5,0.2-0.6
	C264.4,50.6,264.5,50.6,264.5,50.5z M265.2,51.9c0,0.2,0,0.4,0,0.6c0,0.3,0,0.6,0,0.8c0,0.1-0.1,0.2-0.1,0.3
	c-0.1,0.2-0.2,0.3-0.3,0.3c-0.1,0.1-0.3,0.1-0.5,0L264,54l-0.8-0.4c-0.2-0.1-0.4-0.2-0.6-0.3c0.1,0.2,0.1,0.4,0.3,0.7
	s0.3,0.6,0.3,0.9s0.1,0.3,0.1,0.4c0.1,0.1,0.1,0.3,0,0.5c-0.1,0.1-0.2,0.3-0.3,0.3c-0.1,0.1-0.2,0.1-0.4,0.1c-0.3,0-0.6,0-0.8,0
	l-0.6-0.1c0.2,0.1,0.4,0.2,0.5,0.2c0.6,0.1,1.1,0.3,1.6,0.6l1.3-1.3l1.3-1.3c-0.3-0.5-0.4-1.1-0.5-1.7
	C265.4,52.3,265.3,52.1,265.2,51.9z M262.2,53.2L262.2,53.2z M264.5,53.3L264.5,53.3z M264.4,53.4L264.4,53.4z M262.5,55.2
	L262.5,55.2z"/>
<path class="st13" d="M264.3,55.2c5.1-5.1,13.3-5,18.4,0.1c0.1,0.1,0.2,0.2,0.3,0.3c5.1,5.4,4.9,13.9-0.3,19.1
	c-5,5.1-13.2,5.1-18.3,0c-0.1-0.1-0.2-0.2-0.3-0.4C258.9,68.9,259.1,60.5,264.3,55.2z M266.2,57.2c-4.2,4.2-4.3,10.9-0.2,15.2
	c3.8,4.1,10.3,4.4,14.5,0.5c0.1-0.1,0.2-0.2,0.3-0.3c4.1-4.1,4.3-10.8,0.3-15.1c-3.8-4.1-10.3-4.4-14.5-0.5
	C266.4,57.1,266.4,57.2,266.2,57.2L266.2,57.2z"/>
<path class="st14" d="M273.4,51c3.7,0,7.3,1.5,9.9,4.3c5.2,5.6,5.1,14.3-0.3,19.7c-5.2,5.2-13.7,5.2-18.9,0
	c-0.1-0.1-0.2-0.2-0.3-0.3c-5.2-5.6-5.1-14.3,0.3-19.7C266.5,52.4,269.9,51,273.4,51z M273.4,51.8c-3.3,0-6.5,1.3-8.8,3.7
	c-5.1,5.1-5.2,13.3-0.3,18.5c4.7,5.1,12.6,5.4,17.7,0.7c0.1-0.1,0.2-0.2,0.4-0.3c5.1-5.1,5.2-13.3,0.3-18.5
	C280.3,53.3,276.9,51.8,273.4,51.8L273.4,51.8z M273.4,53.8c3,0,5.8,1.2,7.9,3.4c4.2,4.4,4.1,11.4-0.2,15.7c-4.1,4.2-10.9,4.2-15,0
	c-0.1-0.1-0.2-0.2-0.3-0.3c-4.1-4.5-4-11.4,0.3-15.7C268,55,270.6,53.9,273.4,53.8L273.4,53.8z M273.4,54.7c-2.6,0-5.1,1.1-6.9,2.9
	c-4,4-4.1,10.4-0.3,14.5c3.7,4,9.9,4.2,13.9,0.5c0.1-0.1,0.2-0.2,0.3-0.3c4-4,4.1-10.4,0.3-14.5C278.8,55.8,276.2,54.7,273.4,54.7
	L273.4,54.7z"/>
<path class="st10" d="M299.8,48l-3.4-5.4l-5.3,5.6l1.4,1.4c0.7-0.1,1.3-0.4,1.8-0.9L299.8,48z"/>
<path class="st10" d="M291,39.3l5.4,3.3l-5.3,5.6l-1.4-1.4c0-0.7,0.4-1.4,0.9-1.9L291,39.3z"/>
<path class="st11" d="M296.4,42.2c-0.1,0-0.2,0-0.3,0.1l-5.3,5.6c-0.1,0.1-0.1,0.4,0,0.5l1.4,1.4c0.1,0.1,0.2,0.1,0.3,0.1
	c0.7-0.1,1.4-0.5,1.9-1l5.4-0.6c0.2,0,0.3-0.2,0.3-0.4c0-0.1,0-0.1,0-0.2l-3.4-5.4C296.6,42.2,296.5,42.2,296.4,42.2z M296.4,43.1
	l2.8,4.6l-5,0.5c-0.1,0-0.1,0-0.2,0.1c-0.4,0.4-0.9,0.7-1.4,0.8l-1-1L296.4,43.1z"/>
<path class="st11" d="M291,38.9c-0.2,0-0.3,0.1-0.4,0.3l0,0l-0.4,5.5c-0.5,0.5-0.8,1.3-0.9,2c0,0.1,0,0.2,0.1,0.3l1.4,1.3
	c0.1,0.1,0.4,0.1,0.5,0l5.3-5.6c0.1-0.1,0.1-0.4,0-0.5h-0.1l-5.4-3.2C291.1,39,291.1,38.9,291,38.9z M291.3,39.8l4.6,2.8l-4.8,5.1
	l-1-1c0.1-0.6,0.3-1.1,0.7-1.5c0.1,0,0.1-0.1,0.2-0.2L291.3,39.8z"/>
<polygon class="st12" points="299.8,48 293.9,45.2 295.5,44.5 297.5,44.3 298.9,45.9 "/>
<polygon class="st12" points="291.5,39.5 293.9,45.2 294.5,43.5 294.6,41.4 293.1,40.1 "/>
<polygon class="st12" points="297.4,41.5 295,39.5 294.5,40.3 294.6,41.4 295.7,43.3 297.5,44.3 298.6,44.5 299.4,43.9 "/>
<path class="st11" d="M295,39.2c-0.1,0-0.2,0.1-0.3,0.2l-0.5,0.8c0,0.1-0.1,0.2-0.1,0.2l0.2,1.1v0.1l1.1,1.9c0,0.1,0.1,0.1,0.1,0.1
	l1.9,1h0.1l1.1,0.1c0.1,0,0.2,0,0.2-0.1l0.7-0.5c0.2-0.1,0.2-0.3,0.1-0.5l0,0l0,0l-2-2.4l0,0l-2.4-1.9
	C295.1,39.2,295.1,39.2,295,39.2z M295.1,40.1l2.1,1.7l1.7,2.1l-0.3,0.3l-0.9-0.1l-1.7-0.9l-1-1.7l-0.1-0.9L295.1,40.1z"/>
<polygon class="st10" points="294.6,41.4 293.9,45.2 297.5,44.3 "/>
<polygon class="st10" points="291,39.3 295,39.5 294.6,41.4 "/>
<polygon class="st10" points="299.8,48 299.4,43.9 297.5,44.3 "/>
<path class="st11" d="M294.6,41.1c-0.2,0-0.3,0.1-0.3,0.3l-0.7,3.7c0,0.2,0.1,0.4,0.3,0.4l0,0h0.1l3.6-0.8c0.2,0,0.3-0.2,0.3-0.4
	c0-0.1-0.1-0.1-0.1-0.2l-2.9-2.9C294.8,41.1,294.7,41.1,294.6,41.1z M294.8,42.1l2,2l-2.5,0.6L294.8,42.1z"/>
<path class="st11" d="M291,38.9c-0.2,0-0.3,0.2-0.3,0.4c0,0.1,0.1,0.2,0.2,0.3l3.6,2.2c0.2,0.1,0.4,0,0.5-0.1l0,0v-0.1l0.4-1.9
	c0-0.2-0.1-0.4-0.3-0.4l0,0l0,0L291,38.9L291,38.9z M292.4,39.7l2.1,0.2l-0.2,1L292.4,39.7z"/>
<path class="st11" d="M299.4,43.6L299.4,43.6l-1.9,0.4c-0.2,0-0.3,0.2-0.3,0.4v0.1l2.3,3.6c0.1,0.2,0.3,0.2,0.5,0.1
	c0.1-0.1,0.2-0.2,0.1-0.3l-0.4-4C299.7,43.7,299.5,43.5,299.4,43.6z M299.1,44.3l0.2,2.2l-1.2-2L299.1,44.3z"/>
<path class="st12" d="M292.7,46.5c-0.2-0.2-1.9,0.9-2.1,0.7s-0.3-1.7,0.1-2.3c-1.4,0.3-0.9,2-1.6,2.8l1.3,1.3l1.3,1.3
	c0.7-0.8,2.4-0.3,2.6-1.7c-0.6,0.3-2.1,0.4-2.2,0.1S292.9,46.7,292.7,46.5L292.7,46.5z"/>
<path class="st11" d="M290.6,44.6L290.6,44.6c-0.4,0.1-0.8,0.3-1,0.6s-0.3,0.6-0.4,0.9c-0.1,0.5-0.2,1-0.5,1.4
	c-0.1,0.1-0.1,0.4,0,0.5l1.3,1.3l1.3,1.3c0.1,0.1,0.3,0.1,0.5,0c0.4-0.3,0.9-0.4,1.4-0.5c0.3-0.1,0.6-0.2,0.9-0.4
	c0.3-0.3,0.5-0.6,0.5-1c0-0.2-0.1-0.4-0.3-0.4c-0.1,0-0.2,0-0.2,0c-0.4,0.2-0.7,0.2-1.1,0.3c-0.2,0-0.4,0-0.5,0l0,0v-0.1
	c0.1-0.2,0.2-0.4,0.3-0.7c0.1-0.2,0.2-0.5,0.3-0.7c0-0.1,0.1-0.2,0.1-0.3c0-0.2,0-0.3-0.1-0.4c-0.1-0.1-0.3-0.2-0.4-0.1
	c-0.1,0-0.2,0-0.3,0.1c-0.2,0.1-0.5,0.2-0.7,0.3s-0.5,0.2-0.7,0.3h-0.1l0,0c0-0.2,0-0.4,0-0.6c0-0.4,0.1-0.8,0.2-1.2
	c0.1-0.2,0-0.4-0.1-0.5C290.8,44.6,290.7,44.6,290.6,44.6z M290,45.8c0,0.2,0,0.3,0,0.5s0,0.5,0,0.7c0,0.1,0,0.2,0.1,0.3
	s0.1,0.2,0.3,0.3c0.1,0,0.3,0,0.4,0s0.2-0.1,0.3-0.1c0.2-0.1,0.5-0.2,0.7-0.3l0.5-0.2l-0.2,0.5c-0.1,0.2-0.2,0.5-0.3,0.7
	c0,0.1-0.1,0.2-0.1,0.3s0,0.3,0,0.4c0.1,0.1,0.2,0.2,0.3,0.3c0.1,0,0.2,0.1,0.3,0.1c0.2,0,0.5,0,0.7,0h0.5c-0.1,0.1-0.3,0.1-0.5,0.2
	c-0.5,0.1-0.9,0.3-1.4,0.5l-1.1-1.1l-1.1-1.1c0.2-0.5,0.4-0.9,0.4-1.4C289.9,46.1,290,45.9,290,45.8z M292.4,46.6L292.4,46.6z
	 M292.6,46.8L292.6,46.8z M290.6,46.9L290.6,46.9z"/>
<path class="st13" d="M290.8,48.5c-4.2-4.3-11.1-4.3-15.4,0c-0.1,0.1-0.2,0.2-0.3,0.3c-4.2,4.6-4.1,11.7,0.3,16.1
	c4.2,4.3,11.1,4.3,15.4,0c0.1-0.1,0.2-0.2,0.3-0.3C295.3,60,295.2,52.9,290.8,48.5z M289.2,50.2c3.5,3.5,3.6,9.1,0.2,12.7
	c-3.2,3.5-8.7,3.7-12.2,0.4c-0.1-0.1-0.2-0.1-0.2-0.2c-3.5-3.5-3.6-9.1-0.2-12.7c3.2-3.5,8.7-3.7,12.2-0.4
	C289,50.1,289.1,50.1,289.2,50.2z"/>
<path class="st14" d="M283.2,45c-3.1,0-6.2,1.3-8.3,3.6c-4.4,4.7-4.2,12,0.3,16.6c4.4,4.4,11.5,4.4,15.9,0c0.1-0.1,0.2-0.2,0.3-0.3
	c4.4-4.7,4.2-12.1-0.3-16.6C288.9,46.2,286.1,45,283.2,45z M283.2,45.7c2.8,0,5.4,1.1,7.4,3.1c4.3,4.3,4.4,11.2,0.3,15.6
	c-4,4.3-10.6,4.5-14.9,0.6c-0.1-0.1-0.2-0.2-0.3-0.3c-4.3-4.3-4.4-11.2-0.3-15.6C277.4,46.8,280.2,45.6,283.2,45.7L283.2,45.7z
	 M283.2,47.4c-2.5,0-4.9,1-6.6,2.8c-3.5,3.7-3.4,9.6,0.2,13.2c3.5,3.5,9.2,3.5,12.6,0c0.1-0.1,0.2-0.2,0.2-0.2
	c3.5-3.7,3.4-9.6-0.2-13.2C287.8,48.3,285.5,47.4,283.2,47.4L283.2,47.4z M283.2,48.1c2.2,0,4.3,0.9,5.8,2.4
	c3.3,3.3,3.4,8.7,0.2,12.2c-3.1,3.3-8.3,3.5-11.7,0.4c-0.1-0.1-0.1-0.1-0.2-0.2c-3.3-3.4-3.4-8.8-0.2-12.2
	C278.7,49,280.9,48,283.2,48.1L283.2,48.1z"/>
<ellipse class="st15" cx="75.8" cy="54.9" rx="1" ry="1"/>
<path class="st16" d="M67.4,44.3l-7,16.2c-1,2.5-3.8,3.6-6.3,2.6c0,0-0.1,0-0.1-0.1c-2.5-1.1-3.6-4-2.5-6.5l5.7-13.2L67.4,44.3z"/>
<polygon class="st17" points="69.5,39.6 67.4,44.3 57.3,43.2 60.6,35.7 "/>
<line class="st18" x1="54" y1="63" x2="46.8" y2="79.5"/>
<line class="st18" x1="42.4" y1="77.5" x2="51.3" y2="81.5"/>
<path class="st16" d="M77.9,58.9c-2.7,0.1-4.9-2-5-4.7l0,0l-0.4-15.8l9.7,1l0.4,14.5C82.7,56.5,80.6,58.8,77.9,58.9z"/>
<polygon class="st17" points="82.2,39.3 72.5,38.3 72.3,31.4 82,31.1 "/>
<line class="st18" x1="77.9" y1="58.9" x2="78.4" y2="76.9"/>
<line class="st18" x1="73.6" y1="77.1" x2="83.3" y2="76.7"/>
<path class="st15" d="M77.2,52.1L77.2,52.1c0.2,0,0.4,0.2,0.4,0.5l0,0c0,0.2-0.2,0.4-0.5,0.4l0,0c-0.2,0-0.4-0.2-0.4-0.5l0,0
	C76.8,52.2,77,52.1,77.2,52.1z"/>
<path class="st15" d="M75.2,52.6L75.2,52.6c0.2,0,0.4,0.2,0.4,0.5l0,0c0,0.2-0.2,0.4-0.5,0.4l0,0c-0.2,0-0.4-0.2-0.4-0.5l0,0
	C74.8,52.7,75,52.5,75.2,52.6z"/>
<path class="st15" d="M79.1,53L79.1,53c0.2,0,0.4,0.2,0.4,0.5l0,0c0,0.2-0.2,0.4-0.5,0.4l0,0c-0.2,0-0.4-0.2-0.4-0.5l0,0
	C78.7,53.1,78.9,52.9,79.1,53z"/>
<path class="st15" d="M79.7,50.3L79.7,50.3c0.2,0,0.4,0.2,0.4,0.5l0,0c0,0.2-0.2,0.4-0.5,0.4l0,0c-0.2,0-0.4-0.2-0.4-0.5l0,0
	C79.3,50.5,79.5,50.3,79.7,50.3z"/>
<path class="st15" d="M78.2,55.6L78.2,55.6c0.2,0,0.4,0.2,0.4,0.5l0,0c0,0.2-0.2,0.4-0.5,0.4l0,0c-0.2,0-0.4-0.2-0.4-0.5l0,0
	C77.7,55.7,78,55.5,78.2,55.6z"/>
<path class="st15" d="M80.3,54.4L80.3,54.4c0.2,0,0.4,0.2,0.4,0.5l0,0c0,0.2-0.2,0.4-0.5,0.4l0,0c-0.2,0-0.4-0.2-0.4-0.5l0,0
	C79.8,54.6,80,54.4,80.3,54.4z"/>
<path class="st15" d="M76.3,54.7L76.3,54.7c0.2,0,0.4,0.2,0.4,0.5l0,0c0,0.2-0.2,0.4-0.5,0.4l0,0c-0.2,0-0.4-0.2-0.4-0.5l0,0
	C75.9,54.8,76.1,54.7,76.3,54.7z"/>
<path class="st15" d="M78.1,49.7L78.1,49.7c-0.2,0-0.4-0.2-0.4-0.5l0,0c0-0.2,0.2-0.4,0.5-0.4l0,0c0.2,0,0.4,0.2,0.4,0.5l0,0
	C78.6,49.5,78.4,49.7,78.1,49.7z"/>
<path class="st15" d="M80.3,48.2L80.3,48.2c-0.2,0-0.4-0.2-0.4-0.5l0,0c0-0.2,0.2-0.4,0.5-0.4l0,0c0.2,0,0.4,0.2,0.4,0.5l0,0
	C80.7,48.1,80.5,48.2,80.3,48.2z"/>
<path class="st15" d="M76.3,47.8L76.3,47.8c-0.2,0-0.4-0.2-0.4-0.5l0,0c0-0.2,0.2-0.4,0.5-0.4l0,0c0.2,0,0.4,0.2,0.4,0.5l0,0
	C76.8,47.7,76.6,47.9,76.3,47.8z"/>
<path class="st15" d="M74.7,48.7L74.7,48.7c-0.2,0-0.4-0.2-0.4-0.5l0,0c0-0.2,0.2-0.4,0.5-0.4l0,0c0.2,0,0.4,0.2,0.4,0.5l0,0
	C75.1,48.6,74.9,48.7,74.7,48.7z"/>
<path class="st15" d="M75.8,50.5L75.8,50.5c-0.2,0-0.4-0.2-0.4-0.5l0,0c0-0.2,0.2-0.4,0.5-0.4l0,0c0.2,0,0.4,0.2,0.4,0.5l0,0
	C76.2,50.3,76,50.5,75.8,50.5z"/>
<path class="st15" d="M77.3,45.2L77.3,45.2c-0.2,0-0.4-0.2-0.4-0.5l0,0c0-0.2,0.2-0.4,0.5-0.4l0,0c0.2,0,0.4,0.2,0.4,0.5l0,0
	C77.7,45.1,77.5,45.3,77.3,45.2z"/>
<path class="st15" d="M78.1,43.3L78.1,43.3c-0.2,0-0.4-0.2-0.4-0.5l0,0c0-0.2,0.2-0.4,0.5-0.4l0,0c0.2,0,0.4,0.2,0.4,0.5l0,0
	C78.6,43.2,78.4,43.3,78.1,43.3z"/>
<path class="st15" d="M75,41.7L75,41.7c-0.2,0-0.4-0.2-0.4-0.5l0,0c0-0.2,0.2-0.4,0.5-0.4l0,0c0.2,0,0.4,0.2,0.4,0.5l0,0
	C75.4,41.5,75.2,41.7,75,41.7z"/>
<path class="st15" d="M77.3,41.9L77.3,41.9c-0.2,0-0.4-0.2-0.4-0.5l0,0c0-0.2,0.2-0.4,0.5-0.4l0,0c0.2,0,0.4,0.2,0.4,0.5l0,0
	C77.7,41.7,77.5,41.9,77.3,41.9z"/>
<path class="st15" d="M75.2,46.4L75.2,46.4c-0.2,0-0.4-0.2-0.4-0.5l0,0c0-0.2,0.2-0.4,0.5-0.4l0,0c0.2,0,0.4,0.2,0.4,0.5l0,0
	C75.6,46.2,75.4,46.4,75.2,46.4z"/>
<path class="st15" d="M75.4,44L75.4,44c-0.2,0-0.4-0.2-0.4-0.5l0,0c0-0.2,0.2-0.4,0.5-0.4l0,0c0.2,0,0.4,0.2,0.4,0.5l0,0
	C75.9,43.9,75.7,44.1,75.4,44z"/>
<path class="st15" d="M79.2,46.1L79.2,46.1c-0.2,0-0.4-0.2-0.4-0.5l0,0c0-0.2,0.2-0.4,0.5-0.4l0,0c0.2,0,0.4,0.2,0.4,0.5l0,0
	C79.6,46,79.4,46.1,79.2,46.1z"/>
<path class="st15" d="M80.3,44.2L80.3,44.2c-0.2,0-0.4-0.2-0.4-0.5l0,0c0-0.2,0.2-0.4,0.5-0.4l0,0c0.2,0,0.4,0.2,0.4,0.5l0,0
	C80.8,44.1,80.6,44.2,80.3,44.2z"/>
<path class="st15" d="M80.2,41.8L80.2,41.8c-0.2,0-0.4-0.2-0.4-0.5l0,0c0-0.2,0.2-0.4,0.5-0.4l0,0c0.2,0,0.4,0.2,0.4,0.5l0,0
	C80.7,41.7,80.5,41.9,80.2,41.8z"/>
<path class="st15" d="M58.2,49L58.2,49c-0.2,0-0.4,0.1-0.5,0.3l0,0l0,0c0,0.2,0.1,0.5,0.3,0.5l0,0c0.2,0,0.4-0.1,0.5-0.3l0,0l0,0
	C58.5,49.3,58.4,49,58.2,49z"/>
<path class="st15" d="M57.4,47.4L57.4,47.4c-0.2,0-0.4,0.1-0.5,0.3l0,0c0,0.2,0.1,0.4,0.3,0.5l0,0c0.2,0,0.4-0.1,0.5-0.3l0,0l0,0
	C57.8,47.7,57.6,47.5,57.4,47.4z"/>
<path class="st15" d="M60.2,48.7L60.2,48.7c-0.2,0-0.4,0.1-0.5,0.3l0,0c0,0.2,0.1,0.5,0.3,0.5l0,0c0.2,0,0.4-0.1,0.5-0.3l0,0l0,0
	C60.6,48.9,60.4,48.7,60.2,48.7L60.2,48.7z"/>
<path class="st15" d="M62,50.2L62,50.2c-0.2,0-0.4,0.1-0.5,0.3l0,0l0,0c0,0.2,0.1,0.4,0.3,0.5l0,0l0,0c0.2,0,0.4-0.1,0.5-0.3l0,0
	C62.4,50.4,62.2,50.2,62,50.2z"/>
<path class="st15" d="M60.1,51.3L60.1,51.3c-0.2,0-0.4,0.1-0.5,0.3l0,0l0,0c0,0.2,0.1,0.4,0.3,0.5l0,0c0.2,0,0.4-0.1,0.5-0.3l0,0
	C60.5,51.6,60.3,51.4,60.1,51.3C60.1,51.4,60.1,51.4,60.1,51.3z"/>
<path class="st15" d="M60,45.9L60,45.9c-0.2,0-0.4,0.1-0.5,0.3l0,0l0,0c0,0.2,0.1,0.4,0.3,0.5l0,0l0,0c0.2,0,0.4-0.1,0.5-0.3l0,0
	l0,0C60.4,46.2,60.2,46,60,45.9L60,45.9z"/>
<path class="st15" d="M58.5,44.8L58.5,44.8c-0.2,0-0.4,0.1-0.5,0.3l0,0l0,0c0,0.2,0.1,0.4,0.3,0.5l0,0l0,0c0.2,0,0.4-0.1,0.5-0.3
	l0,0l0,0C58.9,45,58.7,44.8,58.5,44.8L58.5,44.8z"/>
<path class="st15" d="M61.7,47.6L61.7,47.6c-0.2,0-0.4,0.1-0.5,0.3l0,0l0,0c0,0.2,0.1,0.5,0.3,0.5l0,0c0.2,0,0.4-0.1,0.5-0.3l0,0
	C62.1,47.8,62,47.6,61.7,47.6z"/>
<path class="st15" d="M62.3,45.6L62.3,45.6c-0.2,0-0.4,0.1-0.5,0.3l0,0l0,0c0,0.2,0.1,0.5,0.3,0.5l0,0c0.2,0,0.4-0.1,0.5-0.3l0,0
	C62.6,45.9,62.5,45.7,62.3,45.6z"/>
<path class="st15" d="M63.8,47.1L63.8,47.1c-0.2,0-0.4,0.1-0.5,0.3l0,0c0,0.2,0.1,0.4,0.3,0.5l0,0c0.2,0,0.4-0.1,0.5-0.3l0,0
	C64.1,47.4,64,47.1,63.8,47.1L63.8,47.1z"/>
<path class="st15" d="M64.2,45.5L64.2,45.5c-0.2,0-0.4,0.1-0.5,0.3l0,0l0,0c0,0.2,0.1,0.4,0.3,0.5l0,0l0,0c0.2,0,0.4-0.1,0.5-0.3
	l0,0l0,0C64.6,45.7,64.5,45.5,64.2,45.5L64.2,45.5z"/>
<path class="st15" d="M58.1,53.2L58.1,53.2c0.2,0,0.4-0.1,0.5-0.3l0,0l0,0c0-0.2-0.1-0.4-0.3-0.5l0,0l0,0c-0.2,0-0.4,0.1-0.5,0.3
	l0,0l0,0C57.7,53,57.9,53.2,58.1,53.2L58.1,53.2z"/>
<path class="st15" d="M59.8,55.2L59.8,55.2c0.2,0,0.4-0.1,0.5-0.3l0,0c0-0.2-0.1-0.5-0.3-0.5l0,0c-0.2,0-0.4,0.1-0.5,0.3l0,0l0,0
	C59.4,54.9,59.5,55.2,59.8,55.2C59.7,55.2,59.7,55.2,59.8,55.2z"/>
<path class="st15" d="M60.9,53.6L60.9,53.6c0.2,0,0.4-0.1,0.5-0.3l0,0l0,0c0-0.2-0.1-0.5-0.4-0.5l0,0l0,0c-0.2,0-0.4,0.1-0.5,0.3
	l0,0C60.5,53.4,60.6,53.6,60.9,53.6L60.9,53.6z"/>
<path class="st15" d="M57.2,54.7L57.2,54.7c0.2,0,0.4-0.1,0.5-0.3l0,0l0,0c0-0.2-0.1-0.4-0.3-0.5l0,0l0,0c-0.2,0-0.4,0.1-0.5,0.3
	l0,0C56.8,54.4,56.9,54.6,57.2,54.7z"/>
<path class="st15" d="M55.1,53.3L55.1,53.3c0.2,0,0.4-0.1,0.5-0.3l0,0l0,0c0-0.2-0.1-0.4-0.3-0.5l0,0c-0.2,0-0.4,0.1-0.5,0.3l0,0
	l0,0C54.7,53,54.9,53.3,55.1,53.3z"/>
<path class="st15" d="M56.7,51.6L56.7,51.6c0.2,0,0.4-0.1,0.5-0.3l0,0c0-0.2-0.1-0.4-0.3-0.5l0,0l0,0c-0.2,0-0.4,0.1-0.5,0.3l0,0
	C56.3,51.3,56.5,51.5,56.7,51.6z"/>
<path class="st15" d="M56.1,57.3L56.1,57.3c0.2,0,0.4-0.1,0.5-0.3l0,0l0,0c0-0.2-0.1-0.4-0.3-0.5l0,0l0,0c-0.2,0-0.4,0.1-0.5,0.3
	l0,0l0,0C55.7,57,55.8,57.2,56.1,57.3L56.1,57.3z"/>
<path class="st15" d="M56.4,59.4L56.4,59.4c0.2,0,0.4-0.1,0.5-0.3l0,0c0-0.2-0.1-0.4-0.3-0.5l0,0c-0.2,0-0.4,0.1-0.5,0.3l0,0l0,0
	C56,59.1,56.1,59.3,56.4,59.4L56.4,59.4z"/>
<path class="st15" d="M53.4,59.8L53.4,59.8c0.2,0,0.4-0.1,0.5-0.3l0,0c0-0.2-0.1-0.4-0.3-0.5l0,0c-0.2,0-0.4,0.1-0.5,0.3l0,0
	C53,59.5,53.2,59.7,53.4,59.8z"/>
<path class="st15" d="M55.2,60.5L55.2,60.5c0.2,0,0.4-0.1,0.5-0.3l0,0c0-0.2-0.1-0.5-0.3-0.5l0,0c-0.2,0-0.4,0.1-0.5,0.3l0,0l0,0
	C54.8,60.2,54.9,60.5,55.2,60.5L55.2,60.5z"/>
<path class="st15" d="M54.4,55.6L54.4,55.6c0.2,0,0.4-0.1,0.5-0.3l0,0l0,0c0-0.2-0.1-0.4-0.3-0.5l0,0c-0.2,0-0.4,0.1-0.5,0.3l0,0
	C54,55.3,54.1,55.6,54.4,55.6L54.4,55.6z"/>
<path class="st15" d="M54,57.9L54,57.9c0.2,0,0.4-0.1,0.5-0.3l0,0c0-0.2-0.1-0.4-0.3-0.5l0,0c-0.2,0-0.4,0.1-0.5,0.3l0,0l0,0
	C53.6,57.7,53.8,57.9,54,57.9z"/>
<path class="st15" d="M58.1,57L58.1,57c0.2,0,0.4-0.1,0.5-0.3l0,0l0,0c0-0.2-0.1-0.4-0.3-0.5l0,0l0,0c-0.2,0-0.4,0.1-0.5,0.3l0,0
	l0,0C57.7,56.7,57.9,57,58.1,57L58.1,57z"/>
<path class="st15" d="M58.7,59.1L58.7,59.1c0.2,0,0.4-0.1,0.5-0.3l0,0c0-0.2-0.1-0.4-0.3-0.5l0,0c-0.2,0-0.4,0.1-0.5,0.3l0,0l0,0
	C58.4,58.8,58.5,59.1,58.7,59.1z"/>
<path class="st15" d="M57.6,61.3L57.6,61.3c0.2,0,0.4-0.1,0.5-0.3l0,0c0-0.2-0.1-0.4-0.3-0.5l0,0c-0.2,0-0.4,0.1-0.5,0.3l0,0
	C57.2,61,57.4,61.2,57.6,61.3L57.6,61.3z"/>
<path class="st8" d="M67.7,29.7c-1.7-0.6-2.1-2.8-1-4.7"/>
<path class="st8" d="M67.1,30.9c-1.4-1.1-3.4-0.2-4.4,1.7"/>
<path class="st8" d="M61,26c1.4,1.1,3.4,0.2,4.4-1.7"/>
<path class="st8" d="M60.3,27.2c1.7,0.6,2.1,2.8,1,4.7"/>
<path class="st8" d="M77.1,22.1c-1.7,0.5-3.3-1-3.5-3.2"/>
<path class="st8" d="M77.3,23.6c-1.8,0-2.9,1.9-2.6,4"/>
<path class="st8" d="M69.6,23.2c1.8,0,2.9-1.9,2.6-4"/>
<path class="st8" d="M69.7,24.6c1.7-0.5,3.3,1,3.5,3.2"/>
<line class="st8" x1="128.5" y1="44.4" x2="130.1" y2="38.4"/>
<line class="st8" x1="124.8" y1="57.8" x2="126.4" y2="51.9"/>
<line class="st8" x1="123.7" y1="47.1" x2="117.8" y2="45.5"/>
<line class="st8" x1="137.1" y1="50.7" x2="131.2" y2="49.1"/>
<line class="st8" x1="65.8" y1="158.5" x2="63.9" y2="154.8"/>
<line class="st8" x1="69.9" y1="166.8" x2="68.1" y2="163.1"/>
<line class="st8" x1="64.8" y1="162.1" x2="61.5" y2="164.1"/>
<line class="st8" x1="72.3" y1="157.5" x2="69" y2="159.5"/>
<line class="st8" x1="49.2" y1="115.8" x2="43.2" y2="116.9"/>
<line class="st8" x1="60.8" y1="113.5" x2="54.8" y2="114.6"/>
<line class="st8" x1="51.3" y1="112.5" x2="50.1" y2="106.8"/>
<line class="st8" x1="53.9" y1="123.6" x2="52.7" y2="117.9"/>
<line class="st8" x1="169.5" y1="132.9" x2="171.5" y2="137.7"/>
<line class="st8" x1="165" y1="122.3" x2="167" y2="127"/>
<line class="st8" x1="165.3" y1="131" x2="160.7" y2="132.6"/>
<line class="st8" x1="175.8" y1="127.4" x2="171.1" y2="129"/>
<circle class="st9" cx="125.8" cy="22.9" r="2.2"/>
<circle class="st9" cx="62.4" cy="102.1" r="2.2"/>
<line class="st8" x1="279.6" y1="103.5" x2="285.6" y2="104.6"/>
<line class="st8" x1="268" y1="101.3" x2="274" y2="102.4"/>
<line class="st8" x1="277.5" y1="100.3" x2="278.8" y2="94.5"/>
<line class="st8" x1="274.9" y1="111.4" x2="276.2" y2="105.6"/>
<circle class="st9" cx="266.4" cy="89.8" r="2.2"/>
<line class="st8" x1="104.5" y1="35.1" x2="102.8" y2="40.9"/>
<line class="st8" x1="107.7" y1="23.7" x2="106" y2="29.6"/>
<line class="st8" x1="102.6" y1="31.7" x2="96.8" y2="30.2"/>
<line class="st8" x1="113.6" y1="34.4" x2="107.9" y2="33"/>
<circle class="st9" cx="98.2" cy="17.1" r="2.2"/>
<circle class="st9" cx="163.9" cy="148.9" r="2.2"/>
<line class="st8" x1="84.4" y1="139.1" x2="86.4" y2="143.8"/>
<line class="st8" x1="79.8" y1="128.4" x2="81.8" y2="133.1"/>
<line class="st8" x1="80.2" y1="137.1" x2="75.6" y2="138.7"/>
<line class="st8" x1="90.7" y1="133.5" x2="86" y2="135.1"/>
<circle class="st9" cx="84.9" cy="157.5" r="2.2"/>
<line class="st8" x1="292.9" y1="121.8" x2="291.1" y2="118.1"/>
<line class="st8" x1="297.1" y1="130.1" x2="295.3" y2="126.4"/>
<line class="st8" x1="292" y1="125.4" x2="288.7" y2="127.4"/>
<line class="st8" x1="299.5" y1="120.7" x2="296.2" y2="122.8"/>
<line class="st8" x1="277.6" y1="156.8" x2="272.6" y2="157.8"/>
<line class="st8" x1="288.9" y1="154.4" x2="283.9" y2="155.4"/>
<line class="st8" x1="281.6" y1="159.1" x2="282.9" y2="163.8"/>
<line class="st8" x1="278.5" y1="148.4" x2="279.9" y2="153.1"/>
<circle class="st9" cx="262.2" cy="166.9" r="2.2"/>
<line class="st8" x1="260.1" y1="136.7" x2="255.4" y2="134.7"/>
<line class="st8" x1="270.8" y1="141.2" x2="266.1" y2="139.2"/>
<line class="st8" x1="262.1" y1="140.8" x2="260.5" y2="145.5"/>
<line class="st8" x1="265.7" y1="130.4" x2="264.1" y2="135"/>
<circle class="st9" cx="241.7" cy="136.1" r="2.2"/>
<circle class="st9" cx="279.1" cy="123.9" r="2.2"/>
<circle class="st9" cx="310.3" cy="111.6" r="2.2"/>
<circle class="st9" cx="99.7" cy="192.7" r="2.2"/>
<circle class="st9" cx="140" cy="146.6" r="2.2"/>
<circle class="st9" cx="111.1" cy="61.8" r="2.2"/>
<line class="st8" x1="239.3" y1="28.4" x2="240.9" y2="34.4"/>
<line class="st8" x1="235.7" y1="15" x2="237.3" y2="20.9"/>
<line class="st8" x1="234.5" y1="25.7" x2="228.6" y2="27.3"/>
<line class="st8" x1="248" y1="22.1" x2="242.1" y2="23.7"/>
<circle class="st9" cx="236.6" cy="49.9" r="2.2"/>
<line class="st8" x1="215.3" y1="37.7" x2="213.6" y2="31.9"/>
<line class="st8" x1="218.6" y1="49.1" x2="216.9" y2="43.3"/>
<line class="st8" x1="213.4" y1="41.1" x2="207.7" y2="42.6"/>
<line class="st8" x1="224.5" y1="38.4" x2="218.8" y2="39.9"/>
<circle class="st9" cx="209.1" cy="55.7" r="2.2"/>
<circle class="st9" cx="184.6" cy="117.6" r="2.2"/>
<circle class="st9" cx="222" cy="11" r="2.2"/>
<path class="st19" d="M73.6,255.4l-4.1,4c-0.4,0.6-0.3,1.4,0.3,1.8l1.8,1.9c1,1,2.3,0.6,2-0.6l-0.1-0.5c-0.1-0.3,0-0.6,0.1-0.9
	l1.8-2.5c0,0,0-0.1,0.1-0.1c5-5,2.2-16.4-6.4-25.4s-19.6-12.4-24.7-7.4l-2.2,2.2c-0.3,0.3-0.8,0.3-1.1,0.1l0,0
	c-1.3-0.5-1.9,0.9-0.9,2l1.3,1.3c0.6,0.6,1.4,0.7,1.8,0.3l3.5-3.4c4.3-4.2,13.7-1.4,21,6.3s9.6,17.3,5.3,21.6"/>
<polyline class="st3" points="43.2,231.6 50.4,251.9 69.5,259.4 "/>
<polyline class="st3" points="77.2,225 45.6,256.5 38.5,256.4 "/>
<path class="st20" d="M72.2,220.8c-1,1-0.7,2.9,0.6,4.2c0.6,0.7,1.5,1.1,2.4,1.3c0.1,0.9,0.5,1.8,1.2,2.4c1.3,1.4,3.1,1.7,4.1,0.8
	c0.6-0.7,0.8-1.8,0.4-2.7l-1.5-4.6l-4.5-1.7C73.9,220.1,72.9,220.2,72.2,220.8z"/>
<line class="st3" x1="45.6" y1="256.5" x2="45.5" y2="263.8"/>
<line class="st3" x1="49" y1="253.2" x2="49" y2="260.5"/>
<line class="st3" x1="49.3" y1="253.4" x2="42.1" y2="253.3"/>
<path class="st19" d="M274.8,255.4l4.1,4c0.4,0.6,0.3,1.4-0.3,1.8l-1.8,1.9c-1,1-2.3,0.6-2-0.6l0.1-0.5c0.1-0.3,0-0.6-0.1-0.9
	l-1.8-2.5l-0.1-0.1c-5-5-2.2-16.4,6.4-25.4s19.6-12.3,24.6-7.4l2.2,2.1c0.3,0.3,0.8,0.3,1.1,0.1l0,0c1.3-0.5,1.9,0.9,0.9,2l-1.2,1.3
	c-0.6,0.6-1.4,0.7-1.8,0.3l-3.5-3.4c-4.3-4.2-13.7-1.4-21,6.3s-9.7,17.4-5.4,21.6"/>
<polyline class="st3" points="305.2,231.6 298,251.9 278.9,259.4 "/>
<polyline class="st3" points="271.2,225 302.8,256.5 309.9,256.4 "/>
<path class="st20" d="M276.2,220.8c1,1,0.7,2.9-0.6,4.2c-0.6,0.7-1.5,1.1-2.4,1.3c-0.1,0.9-0.5,1.8-1.2,2.4
	c-1.3,1.4-3.1,1.7-4.1,0.8c-0.6-0.7-0.8-1.8-0.4-2.7l1.5-4.6l4.5-1.7C274.5,220.1,275.5,220.2,276.2,220.8z"/>
<line class="st3" x1="302.8" y1="256.5" x2="302.9" y2="263.8"/>
<line class="st3" x1="299.4" y1="253.2" x2="299.4" y2="260.5"/>
<line class="st3" x1="299.1" y1="253.4" x2="306.3" y2="253.3"/>
</svg>
