<svg id="Layer_1" data-name="Layer 1" xmlns="http://www.w3.org/2000/svg" viewBox="0 0 350 300"><defs><style>.cls-1,.cls-9{fill:#f16667;}.cls-1,.cls-10,.cls-11,.cls-12,.cls-13,.cls-14,.cls-15,.cls-17,.cls-18,.cls-19,.cls-2,.cls-20,.cls-21,.cls-22,.cls-23,.cls-3,.cls-4,.cls-7,.cls-8,.cls-9{stroke:#353334;}.cls-1,.cls-10,.cls-16,.cls-20,.cls-22,.cls-23,.cls-3,.cls-4,.cls-7,.cls-8,.cls-9{stroke-linecap:round;stroke-linejoin:round;}.cls-1,.cls-23,.cls-3,.cls-7{stroke-width:5px;}.cls-17,.cls-2{fill:#ca9a2c;}.cls-11,.cls-12,.cls-13,.cls-14,.cls-15,.cls-17,.cls-18,.cls-19,.cls-2,.cls-21{stroke-miterlimit:10;}.cls-10,.cls-2,.cls-21,.cls-22,.cls-9{stroke-width:3px;}.cls-3{fill:#efb3a7;}.cls-20,.cls-22,.cls-23,.cls-4{fill:none;}.cls-19,.cls-4,.cls-8{stroke-width:2px;}.cls-5,.cls-7{fill:#7dc2b1;}.cls-10,.cls-15,.cls-21,.cls-6{fill:#353334;}.cls-8{fill:#49786e;}.cls-11{fill:#60988b;}.cls-11,.cls-12,.cls-13,.cls-14,.cls-15{stroke-width:0.25px;}.cls-12{fill:#333232;}.cls-13,.cls-16,.cls-18,.cls-19{fill:#fff;}.cls-14{fill:#9e791f;}.cls-16{stroke:#fff;}.cls-17,.cls-18{stroke-width:4px;}</style></defs><title>wedding</title><path class="cls-1" d="M195.91,44.71a11.87,11.87,0,0,0-11.76-12,11.56,11.56,0,0,0-8.78,4.08,11.61,11.61,0,0,0-8.8-4,11.85,11.85,0,0,0-11.69,12A12,12,0,0,0,160.48,55l15,10.22,14.91-10.28A12,12,0,0,0,195.91,44.71Z"/><polygon class="cls-2" points="191.56 74.67 181.98 70.45 188.63 80.84 191.56 74.67"/><path class="cls-3" d="M250.21,106.9l-17.7-8.38.35-.22A9.93,9.93,0,0,0,237,93.53l1.73-4.33a8.3,8.3,0,0,0,.47-1.54l2.92-10.49-28,12.65-1-.46a12.05,12.05,0,0,0,2.05-5c1.12-6.88-3.86-13.4-11.11-14.56s-14,3.48-15.16,10.36A12.77,12.77,0,0,0,197.39,94a22.27,22.27,0,0,0-1.14,4.26c-2.18,13.39,8.14,26.18,23,28.56,11.18,1.79,21.76-2.8,27.27-10.85l13.78-4.83Z"/><polygon class="cls-2" points="159.5 74.67 169.08 70.45 162.43 80.84 159.5 74.67"/><path class="cls-3" d="M162.11,80.16C161,73.28,154.2,68.64,147,69.8s-12.23,7.68-11.11,14.56a12.05,12.05,0,0,0,2,5l-1,.46L109,77.17l2.91,10.49a10.15,10.15,0,0,0,.47,1.54l1.74,4.33a10,10,0,0,0,4.11,4.77l.36.22-17.7,8.38-10.13,4.26L104.5,116c5.5,8.05,16.09,12.64,27.27,10.85,14.9-2.38,25.22-15.17,23-28.56A22.27,22.27,0,0,0,153.67,94,12.77,12.77,0,0,0,162.11,80.16Z"/><path class="cls-4" d="M198,76.61l1-.59a1.44,1.44,0,0,1,2.21,1.29L201,78.89"/><path class="cls-4" d="M153.11,76.61l-1-.59a1.44,1.44,0,0,0-2.21,1.29l.15,1.58"/><rect class="cls-5" x="132.88" y="232.33" width="87.38" height="56.68" rx="2.5" ry="2.5"/><path class="cls-6" d="M217.76,234.83V286.5H135.38V234.83h82.38m0-5H135.38a5,5,0,0,0-5,5V286.5a5,5,0,0,0,5,5h82.38a5,5,0,0,0,5-5V234.83a5,5,0,0,0-5-5Z"/><path class="cls-7" d="M135.38,232.81l39.86-24.74a2.5,2.5,0,0,1,2.66,0l39.86,24.74"/><path class="cls-7" d="M135.38,236.69l39.86,24.74a2.55,2.55,0,0,0,2.66,0l39.86-24.74"/><path class="cls-8" d="M213.33,235.71v.34H139.82v-.34l35.42-21.4a2.64,2.64,0,0,1,2.66,0Z"/><path class="cls-1" d="M199.75,237.72c-2.1-6.3-7-10.72-12.78-10.72-4.14,0-7.85,2.3-10.39,5.93-2.55-3.63-6.26-5.93-10.4-5.93-5.75,0-10.68,4.42-12.78,10.72a21.44,21.44,0,0,0-1.09,6.8c0,.51,0,1,.05,1.5l23,15.91a2,2,0,0,0,2.1.14,1,1,0,0,0,.24-.14l23-15.91c0-.49.05-1,.05-1.5A21.44,21.44,0,0,0,199.75,237.72Z"/><path class="cls-1" d="M209.68,233.58c1.65-3.14,5-4.61,7.59-3.28a4.84,4.84,0,0,1,2.46,3.74,4.85,4.85,0,0,1,4.47-.12c2.55,1.33,3.28,5,1.64,8.1a6.84,6.84,0,0,1-4.73,3.7l-8.43,1.8-3.34-7.94A6.88,6.88,0,0,1,209.68,233.58Z"/><path class="cls-1" d="M204.1,205.62a8.69,8.69,0,0,1,16.09-2,8.69,8.69,0,0,1,13.42,9.08,8.55,8.55,0,0,1-5.72,6.15l-12.47,4.55-9-9.74A8.58,8.58,0,0,1,204.1,205.62Z"/><path class="cls-1" d="M187.23,150.47a7.8,7.8,0,0,1,14.45-1.76,7.8,7.8,0,0,1,12.06,8.16,7.69,7.69,0,0,1-5.14,5.52l-11.2,4.08-8.11-8.74A7.72,7.72,0,0,1,187.23,150.47Z"/><path class="cls-1" d="M173.8,206.86c-1-4.05-4.49-6.68-7.84-5.87a5.82,5.82,0,0,0-4,3.59,5.81,5.81,0,0,0-5.15-1.39c-3.35.81-5.27,4.75-4.29,8.8a8,8,0,0,0,4.39,5.55L166.2,222l6.22-8.14A8,8,0,0,0,173.8,206.86Z"/><path class="cls-1" d="M114.25,240.52a9.12,9.12,0,0,1,3.37-12.43,9.32,9.32,0,0,1,7.51-.92,9.3,9.3,0,0,1,4.41-6.15,9.1,9.1,0,0,1,12.51,3,8.89,8.89,0,0,1,.12,8.8L136,245.42l-14-.58A8.91,8.91,0,0,1,114.25,240.52Z"/><line class="cls-9" x1="130.87" y1="197.8" x2="132.47" y2="191.87"/><line class="cls-9" x1="127.24" y1="211.24" x2="128.84" y2="205.3"/><line class="cls-9" x1="126.11" y1="200.54" x2="120.17" y2="198.94"/><line class="cls-9" x1="139.54" y1="204.17" x2="133.61" y2="202.56"/><line class="cls-9" x1="219.08" y1="186.52" x2="217.25" y2="182.85"/><line class="cls-9" x1="223.23" y1="194.83" x2="221.4" y2="191.16"/><line class="cls-9" x1="218.16" y1="190.13" x2="214.88" y2="192.18"/><line class="cls-9" x1="225.61" y1="185.5" x2="222.32" y2="187.55"/><line class="cls-9" x1="151.68" y1="172.01" x2="147.57" y2="167.51"/><line class="cls-9" x1="159.6" y1="180.8" x2="155.48" y2="176.3"/><line class="cls-9" x1="151.45" y1="175.89" x2="146.96" y2="179.73"/><line class="cls-9" x1="160.2" y1="168.58" x2="155.72" y2="172.42"/><line class="cls-9" x1="188.11" y1="192.96" x2="190.11" y2="188.26"/><line class="cls-9" x1="183.58" y1="203.61" x2="185.58" y2="198.91"/><line class="cls-9" x1="183.92" y1="194.93" x2="179.3" y2="193.34"/><line class="cls-9" x1="194.39" y1="198.53" x2="189.77" y2="196.94"/><circle class="cls-10" cx="128.15" cy="176.3" r="2.16"/><circle class="cls-10" cx="153.97" cy="190.91" r="2.16"/><line class="cls-9" x1="109.44" y1="169.59" x2="105.32" y2="174.09"/><line class="cls-9" x1="117.35" y1="160.8" x2="113.24" y2="165.3"/><line class="cls-9" x1="109.2" y1="165.71" x2="104.72" y2="161.87"/><line class="cls-9" x1="117.96" y1="173.02" x2="113.47" y2="169.18"/><circle class="cls-10" cx="111.73" cy="150.69" r="2.16"/><line class="cls-9" x1="79.88" y1="97.94" x2="73.84" y2="97.15"/><line class="cls-9" x1="91.62" y1="99.38" x2="85.58" y2="98.6"/><line class="cls-9" x1="82.93" y1="95.52" x2="83.5" y2="89.65"/><line class="cls-9" x1="81.96" y1="106.89" x2="82.54" y2="101.01"/><circle class="cls-10" cx="96.68" cy="88.98" r="2.16"/><circle class="cls-10" cx="182.51" cy="177" r="2.16"/><line class="cls-9" x1="237.71" y1="167.11" x2="239.71" y2="171.81"/><line class="cls-9" x1="233.18" y1="156.47" x2="235.18" y2="161.17"/><line class="cls-9" x1="233.52" y1="165.14" x2="228.9" y2="166.73"/><line class="cls-9" x1="243.99" y1="161.54" x2="239.37" y2="163.13"/><circle class="cls-10" cx="238.23" cy="185.53" r="2.16"/><circle class="cls-10" cx="204.08" cy="183.95" r="2.16"/><line class="cls-9" x1="305.71" y1="90.2" x2="305.17" y2="86.13"/><line class="cls-9" x1="306.93" y1="99.4" x2="306.39" y2="95.33"/><line class="cls-9" x1="303.66" y1="93.31" x2="299.89" y2="94.18"/><line class="cls-9" x1="312.21" y1="91.36" x2="308.44" y2="92.22"/><circle class="cls-10" cx="292.36" cy="82.89" r="2.16"/><circle class="cls-10" cx="121.89" cy="254.24" r="2.16"/><circle class="cls-10" cx="113.54" cy="215.27" r="2.16"/><path class="cls-11" d="M253.63,54.57l4-6.46,6.29,6.69-1.63,1.62a3.27,3.27,0,0,1-2.13-1.13Z"/><path class="cls-11" d="M264.07,44.23l-6.43,3.88,6.29,6.69,1.63-1.61a3.36,3.36,0,0,0-1-2.23Z"/><path class="cls-12" d="M257.63,47.7a.42.42,0,0,1,.3.12l6.29,6.69a.42.42,0,0,1,0,.59l-1.63,1.61a.38.38,0,0,1-.32.12A3.62,3.62,0,0,1,260,55.69L253.58,55a.39.39,0,0,1-.35-.45.28.28,0,0,1,.06-.18l4-6.46A.42.42,0,0,1,257.63,47.7Zm.07,1.08-3.38,5.45,5.9.65a.37.37,0,0,1,.24.12,2.8,2.8,0,0,0,1.7,1l1.2-1.19Z"/><path class="cls-12" d="M264.05,43.81a.42.42,0,0,1,.42.39l.46,6.59a3.77,3.77,0,0,1,1,2.37.41.41,0,0,1-.12.33l-1.63,1.61a.4.4,0,0,1-.57,0l-6.3-6.69a.43.43,0,0,1,0-.59l.08-.06,6.43-3.88A.47.47,0,0,1,264.05,43.81Zm-.34,1.11-5.43,3.28,5.66,6,1.2-1.19a3,3,0,0,0-.89-1.78.36.36,0,0,1-.11-.26Z"/><polygon class="cls-13" points="253.63 54.57 260.59 51.25 258.74 50.46 256.3 50.26 254.68 52.11 253.63 54.57"/><polygon class="cls-13" points="264.07 44.23 260.59 51.25 259.88 49.33 259.77 46.82 261.63 45.22 264.07 44.23"/><path class="cls-12" d="M256.29,49.85h0l2.45.2a.27.27,0,0,1,.12,0l1.85.79a.42.42,0,0,1,.21.54.43.43,0,0,1-.2.22l-7,3.32a.41.41,0,0,1-.54-.2.4.4,0,0,1,0-.34l1.05-2.47a.34.34,0,0,1,.07-.11L256,50A.39.39,0,0,1,256.29,49.85Zm.18.84L255,52.34l-.59,1.39,5.16-2.46-.94-.4Z"/><path class="cls-12" d="M264.08,43.82a.4.4,0,0,1,.39.42.39.39,0,0,1,0,.18l-3.48,7a.39.39,0,0,1-.54.18.4.4,0,0,1-.2-.22l-.7-1.92a.31.31,0,0,1,0-.13l-.11-2.51a.44.44,0,0,1,.14-.34l1.86-1.6.11-.07,2.44-1A.29.29,0,0,1,264.08,43.82Zm-.86,1.2-1.38.56L260.19,47l.1,2.24.36,1Z"/><polygon class="cls-13" points="256.46 46.87 259.36 44.57 259.96 45.5 259.77 46.82 258.51 49.04 256.3 50.26 255.01 50.41 254.13 49.76 256.46 46.87"/><path class="cls-12" d="M259.38,44.16a.4.4,0,0,1,.32.18l.6.93a.49.49,0,0,1,.06.29l-.19,1.32a.3.3,0,0,1-.05.15l-1.27,2.22a.36.36,0,0,1-.15.15l-2.21,1.22a.24.24,0,0,1-.14.05l-1.29.15a.4.4,0,0,1-.28-.08l-.89-.65a.42.42,0,0,1-.09-.58v0l2.34-2.89.07-.06,2.89-2.3A.38.38,0,0,1,259.38,44.16Zm-.12,1-2.51,2-2,2.51.4.3,1.06-.12,2-1.13,1.17-2,.16-1.08Z"/><polygon class="cls-11" points="259.77 46.82 260.59 51.25 256.3 50.26 259.77 46.82"/><polygon class="cls-11" points="264.07 44.23 259.36 44.57 259.77 46.82 264.07 44.23"/><polygon class="cls-11" points="253.63 54.57 254.13 49.76 256.3 50.26 253.63 54.57"/><path class="cls-12" d="M259.79,46.41a.39.39,0,0,1,.38.33l.82,4.44a.41.41,0,0,1-.32.48.49.49,0,0,1-.17,0l-4.29-1a.41.41,0,0,1-.3-.49A.43.43,0,0,1,256,50l3.47-3.44A.38.38,0,0,1,259.79,46.41Zm-.27,1.24L257.12,50l3,.69Z"/><path class="cls-12" d="M264.08,43.81a.41.41,0,0,1,.39.43.43.43,0,0,1-.2.35L260,47.18a.4.4,0,0,1-.55-.15.35.35,0,0,1-.05-.13L259,44.65a.42.42,0,0,1,.32-.49h.05l4.71-.35Zm-1.7,1-2.54.18.22,1.21Z"/><path class="cls-12" d="M254.14,49.34h.07l2.18.51a.41.41,0,0,1,.31.49.31.31,0,0,1-.06.13L254,54.79a.4.4,0,0,1-.56.13.4.4,0,0,1-.18-.39l.49-4.82A.41.41,0,0,1,254.14,49.34Zm.34.92-.27,2.6,1.44-2.33Z"/><path class="cls-13" d="M262.06,52.81c.26-.26,2.22,1,2.56.87s.3-2-.08-2.71c1.66.36,1.07,2.4,1.92,3.3l-1.57,1.55-1.57,1.55c-.84-.9-2.85-.36-3.15-2.08.69.42,2.49.52,2.65.18s-1-2.4-.76-2.66Z"/><path class="cls-12" d="M264.55,50.55h.07a1.85,1.85,0,0,1,1.12.7,2.79,2.79,0,0,1,.46,1.05,4.15,4.15,0,0,0,.55,1.67.43.43,0,0,1,0,.59l-1.57,1.55-1.57,1.55a.39.39,0,0,1-.57,0,4.18,4.18,0,0,0-1.6-.62,2.7,2.7,0,0,1-1-.5,2,2,0,0,1-.64-1.17.43.43,0,0,1,.33-.49.45.45,0,0,1,.28.06,3.83,3.83,0,0,0,1.34.31,3.21,3.21,0,0,0,.65,0h0s0-.09,0-.14c-.08-.23-.2-.52-.33-.82s-.24-.59-.32-.86a1.69,1.69,0,0,1-.08-.39.59.59,0,0,1,.16-.51.53.53,0,0,1,.5-.14,1.34,1.34,0,0,1,.38.1,7.92,7.92,0,0,1,.82.36l.78.36.14.05v0a3.24,3.24,0,0,0,0-.67,3.85,3.85,0,0,0-.26-1.39.42.42,0,0,1,.17-.56A.46.46,0,0,1,264.55,50.55Zm.66,1.39a4,4,0,0,1,0,.59,4.52,4.52,0,0,1-.05.85,2,2,0,0,1-.11.35.59.59,0,0,1-.31.34.58.58,0,0,1-.45,0L264,54l-.82-.38c-.22-.11-.44-.21-.62-.28.06.19.15.42.25.65s.25.59.34.86.08.25.11.38a.61.61,0,0,1,0,.45.57.57,0,0,1-.33.31,1.15,1.15,0,0,1-.35.1,3.73,3.73,0,0,1-.83,0L261.1,56a2.52,2.52,0,0,0,.55.22,5.35,5.35,0,0,1,1.65.58l1.31-1.3,1.31-1.3a5.77,5.77,0,0,1-.51-1.7A2.32,2.32,0,0,0,265.21,51.94Zm-2.78,1Zm-.25.24h0Zm2.37.08h0Zm-.19.1h0Zm-1.83,1.82h0Zm-.11.18"/><path class="cls-14" d="M264.32,55.22a13,13,0,0,1,18.64.33,13.79,13.79,0,0,1-.32,19.13A12.94,12.94,0,0,1,264,74.34a13.77,13.77,0,0,1,.32-19.12Zm1.92,2A10.89,10.89,0,0,0,266,72.37a10.23,10.23,0,0,0,14.72.27A10.88,10.88,0,0,0,281,57.53a10.23,10.23,0,0,0-14.73-.27Z"/><path class="cls-15" d="M273.39,51a13.36,13.36,0,0,1,9.86,4.26A14.21,14.21,0,0,1,282.92,75a13.35,13.35,0,0,1-19.21-.35A14.21,14.21,0,0,1,264,54.92,13.36,13.36,0,0,1,273.39,51Zm0,.83a12.58,12.58,0,0,0-8.8,3.68,13.34,13.34,0,0,0-.31,18.53,12.53,12.53,0,0,0,18.06.33,13.35,13.35,0,0,0,.32-18.54A12.53,12.53,0,0,0,273.4,51.84Zm0,2a10.63,10.63,0,0,1,7.85,3.39A11.3,11.3,0,0,1,281,72.93a10.62,10.62,0,0,1-15.29-.27A11.32,11.32,0,0,1,266,57,10.67,10.67,0,0,1,273.41,53.85Zm0,.82a9.84,9.84,0,0,0-6.88,2.89,10.44,10.44,0,0,0-.25,14.52,9.82,9.82,0,0,0,14.15.26,10.47,10.47,0,0,0,.25-14.53A9.92,9.92,0,0,0,273.41,54.67Z"/><path class="cls-11" d="M299.79,48l-3.37-5.43-5.29,5.62,1.37,1.36a2.73,2.73,0,0,0,1.79-.94Z"/><path class="cls-11" d="M291,39.26l5.41,3.27-5.3,5.62-1.37-1.36a2.83,2.83,0,0,1,.86-1.86Z"/><path class="cls-12" d="M296.43,42.18a.36.36,0,0,0-.25.1l-5.29,5.63a.36.36,0,0,0,0,.49l1.38,1.36a.34.34,0,0,0,.27.1,3.16,3.16,0,0,0,1.91-1l5.38-.59a.35.35,0,0,0,.3-.39.3.3,0,0,0-.05-.15l-3.37-5.43A.33.33,0,0,0,296.43,42.18Zm-.06.91,2.84,4.58-5,.55a.32.32,0,0,0-.2.1,2.34,2.34,0,0,1-1.43.82l-1-1Z"/><path class="cls-12" d="M291,38.91a.34.34,0,0,0-.35.33l-.39,5.54a3.24,3.24,0,0,0-.87,2,.37.37,0,0,0,.1.28l1.37,1.35a.35.35,0,0,0,.49,0l5.29-5.63a.35.35,0,0,0,0-.49l-.06-.05L291.19,39A.33.33,0,0,0,291,38.91Zm.29.94,4.56,2.75-4.76,5.06-1-1a2.4,2.4,0,0,1,.74-1.49A.37.37,0,0,0,291,45Z"/><polygon class="cls-13" points="299.8 47.96 293.94 45.17 295.49 44.5 297.55 44.33 298.91 45.89 299.8 47.96"/><polygon class="cls-13" points="291.49 39.45 293.94 45.17 294.53 43.55 294.63 41.44 293.06 40.09 291.49 39.45"/><polygon class="cls-13" points="297.41 41.48 294.98 39.55 294.47 40.33 294.63 41.44 295.69 43.31 297.55 44.33 298.63 44.45 299.38 43.91 297.41 41.48"/><path class="cls-12" d="M295,39.2a.34.34,0,0,0-.27.16l-.5.78a.35.35,0,0,0-.06.24l.16,1.11a.5.5,0,0,0,0,.13l1.07,1.86a.33.33,0,0,0,.13.13l1.85,1,.13,0,1.08.12a.34.34,0,0,0,.24-.06l.74-.55a.34.34,0,0,0,.08-.48v0l-2-2.43-.05,0-2.44-1.94A.34.34,0,0,0,295,39.2Zm.1.86,2.11,1.68,1.71,2.1-.34.25-.89-.1-1.71-.94-1-1.73-.12-.91Z"/><polygon class="cls-11" points="294.63 41.44 293.94 45.17 297.55 44.33 294.63 41.44"/><polygon class="cls-11" points="291.02 39.26 294.98 39.55 294.63 41.44 291.02 39.26"/><polygon class="cls-11" points="299.8 47.96 299.38 43.91 297.55 44.33 299.8 47.96"/><path class="cls-12" d="M294.62,41.09a.36.36,0,0,0-.33.29l-.68,3.72a.34.34,0,0,0,.27.41.29.29,0,0,0,.13,0l3.61-.84a.35.35,0,0,0,.26-.41.4.4,0,0,0-.1-.18l-2.92-2.89A.31.31,0,0,0,294.62,41.09Zm.22,1,2,2-2.49.57Z"/><path class="cls-12" d="M291,38.91a.35.35,0,0,0-.33.36.34.34,0,0,0,.16.29l3.61,2.18a.34.34,0,0,0,.47-.12.49.49,0,0,0,0-.11l.35-1.9a.34.34,0,0,0-.27-.4h0l-4-.29Zm1.43.8,2.13.16-.19,1Z"/><path class="cls-12" d="M299.36,43.56h-.06l-1.83.42a.36.36,0,0,0-.26.42.37.37,0,0,0,.05.11l2.25,3.63a.34.34,0,0,0,.62-.23l-.42-4.05A.33.33,0,0,0,299.36,43.56Zm-.28.78.22,2.18-1.21-2Z"/><path class="cls-13" d="M292.7,46.48c-.22-.22-1.86.86-2.15.73s-.25-1.68.07-2.28c-1.4.3-.9,2-1.61,2.77L290.33,49l1.31,1.3c.71-.75,2.4-.3,2.65-1.74-.58.35-2.09.43-2.22.14s.86-2,.63-2.23Z"/><path class="cls-12" d="M290.61,44.58h-.06a1.56,1.56,0,0,0-.94.58,2.5,2.5,0,0,0-.39.89,3.5,3.5,0,0,1-.46,1.4.36.36,0,0,0,0,.49l1.32,1.31,1.32,1.31a.34.34,0,0,0,.48,0,3.49,3.49,0,0,1,1.35-.53,2.25,2.25,0,0,0,.85-.42,1.65,1.65,0,0,0,.54-1,.37.37,0,0,0-.28-.41.32.32,0,0,0-.23.05,3.36,3.36,0,0,1-1.13.26,2.31,2.31,0,0,1-.55,0h0l0-.12c.07-.19.17-.43.27-.68A6.75,6.75,0,0,0,293,47a1.2,1.2,0,0,0,.06-.32.49.49,0,0,0-.13-.43.44.44,0,0,0-.42-.12,1.25,1.25,0,0,0-.32.08c-.21.08-.45.19-.69.3s-.48.23-.66.3l-.11.05v0a3,3,0,0,1,0-.56,3.28,3.28,0,0,1,.22-1.17.35.35,0,0,0-.14-.47A.33.33,0,0,0,290.61,44.58Zm-.56,1.17a4,4,0,0,0,0,.49,3.17,3.17,0,0,0,.05.71,1.32,1.32,0,0,0,.08.3.52.52,0,0,0,.27.28.48.48,0,0,0,.37,0,1.63,1.63,0,0,0,.31-.11c.22-.08.46-.2.69-.31l.53-.24-.21.55c-.1.24-.21.49-.29.72a1.92,1.92,0,0,0-.09.32.52.52,0,0,0,0,.38.49.49,0,0,0,.28.26,1,1,0,0,0,.3.08,3.05,3.05,0,0,0,.69,0l.48,0a2.31,2.31,0,0,1-.47.18,4.78,4.78,0,0,0-1.38.49l-1.1-1.09-1.1-1.09a4.59,4.59,0,0,0,.42-1.44A2.68,2.68,0,0,1,290.05,45.75Zm2.35.84h0Zm.2.21h0Zm-2,.07h0Zm.16.08Zm1.54,1.53Zm.09.15"/><path class="cls-14" d="M290.8,48.5a10.88,10.88,0,0,0-15.67.29,11.59,11.59,0,0,0,.27,16.08,10.88,10.88,0,0,0,15.67-.29,11.58,11.58,0,0,0-.27-16.08Zm-1.62,1.72a9.16,9.16,0,0,1,.22,12.71,8.6,8.6,0,0,1-12.38.22,9.16,9.16,0,0,1-.22-12.71,8.6,8.6,0,0,1,12.38-.22Z"/><path class="cls-15" d="M283.18,45a11.25,11.25,0,0,0-8.3,3.57,12,12,0,0,0,.29,16.58,11.23,11.23,0,0,0,16.15-.29A12,12,0,0,0,291,48.25,11.23,11.23,0,0,0,283.18,45Zm0,.69a10.56,10.56,0,0,1,7.39,3.1,11.21,11.21,0,0,1,.27,15.58,10.54,10.54,0,0,1-15.19.28A11.23,11.23,0,0,1,275.37,49,10.59,10.59,0,0,1,283.17,45.66Zm0,1.69a9,9,0,0,0-6.6,2.85,9.51,9.51,0,0,0,.22,13.2,8.94,8.94,0,0,0,12.87-.23,9.52,9.52,0,0,0-.23-13.2A9,9,0,0,0,283.16,47.35Zm0,.7A8.29,8.29,0,0,1,289,50.47a8.79,8.79,0,0,1,.21,12.21,8.27,8.27,0,0,1-11.91.22,8.79,8.79,0,0,1-.2-12.21A8.23,8.23,0,0,1,283.16,48.05Z"/><ellipse class="cls-16" cx="75.81" cy="54.89" rx="1.04" ry="1.02" transform="translate(13.54 124.76) rotate(-84.2)"/><path class="cls-17" d="M67.45,44.26l-7,16.17A4.83,4.83,0,0,1,54,63a5,5,0,0,1-2.47-6.53l5.74-13.21Z"/><polygon class="cls-18" points="69.46 39.63 67.45 44.26 57.29 43.23 60.59 35.65 69.46 39.63"/><line class="cls-19" x1="54.02" y1="62.97" x2="46.85" y2="79.47"/><line class="cls-19" x1="42.41" y1="77.48" x2="51.28" y2="81.46"/><path class="cls-17" d="M77.91,58.87a4.87,4.87,0,0,1-5-4.78l-.44-15.76,9.74,1,.4,14.45A4.92,4.92,0,0,1,77.91,58.87Z"/><polygon class="cls-18" points="82.22 39.31 72.48 38.33 72.29 31.38 81.99 31.06 82.22 39.31"/><line class="cls-19" x1="77.91" y1="58.87" x2="78.41" y2="76.89"/><line class="cls-19" x1="73.56" y1="77.05" x2="83.26" y2="76.73"/><rect class="cls-16" x="76.77" y="52.1" width="0.84" height="0.85" rx="0.42" ry="0.42" transform="translate(5.7 -7.53) rotate(5.8)"/><rect class="cls-16" x="74.75" y="52.56" width="0.84" height="0.85" rx="0.42" ry="0.42" transform="translate(5.74 -7.32) rotate(5.8)"/><rect class="cls-16" x="78.65" y="52.96" width="0.84" height="0.85" rx="0.42" ry="0.42" transform="translate(5.8 -7.71) rotate(5.8)"/><rect class="cls-16" x="79.25" y="50.33" width="0.84" height="0.85" rx="0.42" ry="0.42" transform="translate(5.53 -7.79) rotate(5.8)"/><rect class="cls-16" x="77.73" y="55.55" width="0.84" height="0.85" rx="0.42" ry="0.42" transform="translate(6.05 -7.61) rotate(5.8)"/><rect class="cls-16" x="79.82" y="54.42" width="0.84" height="0.85" rx="0.42" ry="0.42" transform="translate(5.95 -7.82) rotate(5.8)"/><rect class="cls-16" x="75.85" y="54.69" width="0.84" height="0.85" rx="0.42" ry="0.42" transform="translate(5.96 -7.42) rotate(5.8)"/><rect class="cls-16" x="77.76" y="48.84" width="0.84" height="0.85" rx="0.42" ry="0.42" transform="translate(150.97 106.18) rotate(-174.2)"/><rect class="cls-16" x="79.88" y="47.38" width="0.84" height="0.85" rx="0.42" ry="0.42" transform="translate(155.36 103.47) rotate(-174.2)"/><rect class="cls-16" x="75.97" y="46.98" width="0.84" height="0.85" rx="0.42" ry="0.42" transform="translate(147.6 102.29) rotate(-174.2)"/><rect class="cls-16" x="74.34" y="47.86" width="0.84" height="0.85" rx="0.42" ry="0.42" transform="translate(144.25 103.88) rotate(-174.2)"/><rect class="cls-16" x="75.38" y="49.61" width="0.84" height="0.85" rx="0.42" ry="0.42" transform="translate(146.15 107.47) rotate(-174.2)"/><rect class="cls-16" x="76.89" y="44.39" width="0.84" height="0.85" rx="0.42" ry="0.42" transform="translate(149.7 97.21) rotate(-174.2)"/><rect class="cls-16" x="77.75" y="42.46" width="0.84" height="0.85" rx="0.42" ry="0.42" transform="translate(151.6 93.45) rotate(-174.2)"/><rect class="cls-16" x="74.63" y="40.8" width="0.84" height="0.85" rx="0.42" ry="0.42" transform="translate(145.54 89.83) rotate(-174.2)"/><rect class="cls-16" x="76.9" y="41.03" width="0.84" height="0.85" rx="0.42" ry="0.42" transform="translate(150.06 90.52) rotate(-174.2)"/><rect class="cls-16" x="74.8" y="45.52" width="0.84" height="0.85" rx="0.42" ry="0.42" transform="translate(145.42 99.26) rotate(-174.2)"/><rect class="cls-16" x="75.04" y="43.19" width="0.84" height="0.85" rx="0.42" ry="0.42" transform="translate(146.13 94.64) rotate(-174.2)"/><rect class="cls-16" x="78.78" y="45.25" width="0.84" height="0.85" rx="0.42" ry="0.42" transform="translate(153.38 99.12) rotate(-174.2)"/><rect class="cls-16" x="79.96" y="43.36" width="0.84" height="0.85" rx="0.42" ry="0.42" transform="translate(155.92 95.46) rotate(-174.2)"/><rect class="cls-16" x="79.87" y="41" width="0.84" height="0.85" rx="0.42" ry="0.42" transform="translate(155.98 90.75) rotate(-174.2)"/><path class="cls-16" d="M58.16,49h0a.42.42,0,0,0-.48.35h0a.43.43,0,0,0,.34.5h0a.42.42,0,0,0,.48-.35h0A.43.43,0,0,0,58.16,49Z"/><path class="cls-16" d="M57.39,47.41h0a.43.43,0,0,0-.49.35h0a.43.43,0,0,0,.34.49h0a.42.42,0,0,0,.49-.35h0A.43.43,0,0,0,57.39,47.41Z"/><path class="cls-16" d="M60.21,48.66h0a.42.42,0,0,0-.48.34h0a.43.43,0,0,0,.34.5h0a.42.42,0,0,0,.48-.35h0A.42.42,0,0,0,60.21,48.66Z"/><path class="cls-16" d="M62,50.18h0a.42.42,0,0,0-.48.35h0a.42.42,0,0,0,.34.49h0a.42.42,0,0,0,.48-.34h0A.43.43,0,0,0,62,50.18Z"/><path class="cls-16" d="M60.08,51.35h0a.42.42,0,0,0-.49.34h0a.45.45,0,0,0,.34.5h0a.43.43,0,0,0,.49-.35h0A.42.42,0,0,0,60.08,51.35Z"/><path class="cls-16" d="M60,45.91h0a.42.42,0,0,0-.48.35h0a.42.42,0,0,0,.34.49h0a.42.42,0,0,0,.48-.35h0A.42.42,0,0,0,60,45.91Z"/><path class="cls-16" d="M58.49,44.75h0a.42.42,0,0,0-.48.35h0a.42.42,0,0,0,.34.49h0a.42.42,0,0,0,.48-.35h0A.42.42,0,0,0,58.49,44.75Z"/><path class="cls-16" d="M61.73,47.57h0a.42.42,0,0,0-.49.34h0a.43.43,0,0,0,.34.5h0a.43.43,0,0,0,.49-.35h0A.43.43,0,0,0,61.73,47.57Z"/><path class="cls-16" d="M62.26,45.61h0a.42.42,0,0,0-.49.34h0a.43.43,0,0,0,.34.5h0a.43.43,0,0,0,.49-.35h0A.43.43,0,0,0,62.26,45.61Z"/><path class="cls-16" d="M63.75,47.1h0a.43.43,0,0,0-.49.35h0a.43.43,0,0,0,.34.49h0a.43.43,0,0,0,.49-.35h0A.42.42,0,0,0,63.75,47.1Z"/><path class="cls-16" d="M64.24,45.47h0a.42.42,0,0,0-.48.35h0a.42.42,0,0,0,.34.49h0a.41.41,0,0,0,.48-.35h0A.42.42,0,0,0,64.24,45.47Z"/><path class="cls-16" d="M58.1,53.22h0a.42.42,0,0,0,.48-.35h0a.42.42,0,0,0-.34-.49h0a.42.42,0,0,0-.48.35h0A.42.42,0,0,0,58.1,53.22Z"/><path class="cls-16" d="M59.75,55.2h0a.42.42,0,0,0,.48-.34h0a.43.43,0,0,0-.34-.5h0a.42.42,0,0,0-.48.35h0A.42.42,0,0,0,59.75,55.2Z"/><path class="cls-16" d="M60.89,53.64h0a.42.42,0,0,0,.49-.35h0A.43.43,0,0,0,61,52.8h0a.43.43,0,0,0-.49.35h0A.42.42,0,0,0,60.89,53.64Z"/><path class="cls-16" d="M57.18,54.66h0a.42.42,0,0,0,.48-.35h0a.42.42,0,0,0-.34-.49h0a.42.42,0,0,0-.48.34h0A.43.43,0,0,0,57.18,54.66Z"/><path class="cls-16" d="M55.09,53.3h0a.42.42,0,0,0,.48-.35h0a.42.42,0,0,0-.33-.49h0a.42.42,0,0,0-.49.34h0A.43.43,0,0,0,55.09,53.3Z"/><path class="cls-16" d="M56.69,51.57h0a.43.43,0,0,0,.49-.35h0a.42.42,0,0,0-.34-.49h0a.43.43,0,0,0-.49.35h0A.43.43,0,0,0,56.69,51.57Z"/><path class="cls-16" d="M56.07,57.27h0a.42.42,0,0,0,.48-.35h0a.42.42,0,0,0-.34-.49h0a.42.42,0,0,0-.48.35h0A.42.42,0,0,0,56.07,57.27Z"/><path class="cls-16" d="M56.37,59.36h0a.43.43,0,0,0,.49-.35h0a.43.43,0,0,0-.34-.49h0a.42.42,0,0,0-.49.35h0A.42.42,0,0,0,56.37,59.36Z"/><path class="cls-16" d="M53.42,59.77h0a.43.43,0,0,0,.49-.35h0a.43.43,0,0,0-.34-.49h0a.43.43,0,0,0-.49.35h0A.43.43,0,0,0,53.42,59.77Z"/><path class="cls-16" d="M55.18,60.5h0a.42.42,0,0,0,.48-.34h0a.43.43,0,0,0-.34-.5h0a.42.42,0,0,0-.48.35h0A.42.42,0,0,0,55.18,60.5Z"/><path class="cls-16" d="M54.36,55.61h0a.41.41,0,0,0,.48-.34h0a.43.43,0,0,0-.33-.5h0a.43.43,0,0,0-.49.35h0A.42.42,0,0,0,54.36,55.61Z"/><path class="cls-16" d="M54,57.92h0a.43.43,0,0,0,.49-.35h0a.43.43,0,0,0-.34-.49h0a.42.42,0,0,0-.49.35h0A.43.43,0,0,0,54,57.92Z"/><path class="cls-16" d="M58.12,57h0a.42.42,0,0,0,.48-.35h0a.42.42,0,0,0-.34-.49h0a.42.42,0,0,0-.48.35h0A.42.42,0,0,0,58.12,57Z"/><path class="cls-16" d="M58.74,59.1h0a.43.43,0,0,0,.49-.35h0a.43.43,0,0,0-.34-.49h0a.42.42,0,0,0-.49.34h0A.43.43,0,0,0,58.74,59.1Z"/><path class="cls-16" d="M57.6,61.26h0a.43.43,0,0,0,.49-.35h0a.43.43,0,0,0-.34-.49h0a.43.43,0,0,0-.49.35h0A.42.42,0,0,0,57.6,61.26Z"/><path class="cls-20" d="M67.72,29.68c-1.66-.62-2.06-2.8-1-4.66"/><path class="cls-20" d="M67.05,30.94c-1.41-1.09-3.43-.24-4.39,1.68"/><path class="cls-20" d="M61,26c1.42,1.08,3.44.24,4.39-1.69"/><path class="cls-20" d="M60.34,27.22c1.66.62,2.06,2.81,1,4.66"/><path class="cls-20" d="M77.14,22.15c-1.71.49-3.29-1-3.49-3.17"/><path class="cls-20" d="M77.31,23.57c-1.77,0-2.93,1.86-2.59,4"/><path class="cls-20" d="M69.55,23.16c1.77,0,2.93-1.86,2.59-4"/><path class="cls-20" d="M69.72,24.58c1.71-.5,3.29,1,3.49,3.17"/><line class="cls-9" x1="128.47" y1="44.37" x2="130.07" y2="38.44"/><line class="cls-9" x1="124.84" y1="57.81" x2="126.44" y2="51.87"/><line class="cls-9" x1="123.71" y1="47.11" x2="117.77" y2="45.51"/><line class="cls-9" x1="137.14" y1="50.74" x2="131.21" y2="49.14"/><line class="cls-9" x1="65.75" y1="158.49" x2="63.91" y2="154.82"/><line class="cls-9" x1="69.9" y1="166.8" x2="68.06" y2="163.13"/><line class="cls-9" x1="64.83" y1="162.1" x2="61.54" y2="164.15"/><line class="cls-9" x1="72.27" y1="157.47" x2="68.98" y2="159.52"/><line class="cls-9" x1="49.2" y1="115.77" x2="43.21" y2="116.89"/><line class="cls-9" x1="60.81" y1="113.52" x2="54.82" y2="114.64"/><line class="cls-9" x1="51.35" y1="112.53" x2="50.08" y2="106.77"/><line class="cls-9" x1="53.94" y1="123.64" x2="52.67" y2="117.87"/><line class="cls-9" x1="169.49" y1="132.95" x2="171.5" y2="137.66"/><line class="cls-9" x1="164.96" y1="122.31" x2="166.97" y2="127.01"/><line class="cls-9" x1="165.31" y1="130.99" x2="160.68" y2="132.58"/><line class="cls-9" x1="175.78" y1="127.39" x2="171.15" y2="128.98"/><circle class="cls-10" cx="125.75" cy="22.87" r="2.16"/><circle class="cls-10" cx="62.41" cy="102.06" r="2.16"/><line class="cls-9" x1="279.64" y1="103.53" x2="285.63" y2="104.64"/><line class="cls-9" x1="268.03" y1="101.27" x2="274.02" y2="102.39"/><line class="cls-9" x1="277.5" y1="100.29" x2="278.76" y2="94.52"/><line class="cls-9" x1="274.9" y1="111.4" x2="276.17" y2="105.63"/><circle class="cls-10" cx="266.43" cy="89.81" r="2.16"/><line class="cls-9" x1="104.47" y1="35.09" x2="102.75" y2="40.93"/><line class="cls-9" x1="107.73" y1="23.72" x2="106.01" y2="29.56"/><line class="cls-9" x1="102.56" y1="31.71" x2="96.84" y2="30.21"/><line class="cls-9" x1="113.63" y1="34.44" x2="107.92" y2="32.95"/><circle class="cls-10" cx="98.24" cy="17.09" r="2.16"/><circle class="cls-10" cx="163.89" cy="148.92" r="2.16"/><line class="cls-9" x1="84.38" y1="139.08" x2="86.38" y2="143.78"/><line class="cls-9" x1="79.85" y1="128.43" x2="81.85" y2="133.14"/><line class="cls-9" x1="80.19" y1="137.11" x2="75.56" y2="138.7"/><line class="cls-9" x1="90.66" y1="133.51" x2="86.03" y2="135.1"/><circle class="cls-10" cx="84.9" cy="157.5" r="2.16"/><line class="cls-9" x1="292.94" y1="121.75" x2="291.1" y2="118.08"/><line class="cls-9" x1="297.09" y1="130.05" x2="295.25" y2="126.38"/><line class="cls-9" x1="292.02" y1="125.36" x2="288.73" y2="127.4"/><line class="cls-9" x1="299.46" y1="120.73" x2="296.17" y2="122.77"/><line class="cls-9" x1="277.58" y1="156.78" x2="272.58" y2="157.84"/><line class="cls-9" x1="288.9" y1="154.38" x2="283.9" y2="155.44"/><line class="cls-9" x1="281.59" y1="159.08" x2="282.94" y2="163.78"/><line class="cls-9" x1="278.54" y1="148.44" x2="279.89" y2="153.14"/><circle class="cls-10" cx="262.19" cy="166.92" r="2.16"/><line class="cls-9" x1="260.15" y1="136.66" x2="255.45" y2="134.66"/><line class="cls-9" x1="270.8" y1="141.19" x2="266.09" y2="139.19"/><line class="cls-9" x1="262.12" y1="140.84" x2="260.53" y2="145.47"/><line class="cls-9" x1="265.72" y1="130.37" x2="264.13" y2="135"/><circle class="cls-10" cx="241.74" cy="136.14" r="2.16"/><circle class="cls-10" cx="279.09" cy="123.89" r="2.16"/><circle class="cls-10" cx="310.32" cy="111.64" r="2.16"/><circle class="cls-10" cx="99.73" cy="192.67" r="2.16"/><circle class="cls-10" cx="140.02" cy="146.6" r="2.16"/><circle class="cls-10" cx="111.14" cy="61.84" r="2.16"/><line class="cls-9" x1="239.31" y1="28.44" x2="240.91" y2="34.37"/><line class="cls-9" x1="235.68" y1="15" x2="237.28" y2="20.94"/><line class="cls-9" x1="234.54" y1="25.7" x2="228.61" y2="27.3"/><line class="cls-9" x1="247.98" y1="22.07" x2="242.05" y2="23.67"/><circle class="cls-10" cx="236.59" cy="49.94" r="2.16"/><line class="cls-9" x1="215.31" y1="37.72" x2="213.58" y2="31.88"/><line class="cls-9" x1="218.57" y1="49.09" x2="216.85" y2="43.25"/><line class="cls-9" x1="213.4" y1="41.1" x2="207.68" y2="42.6"/><line class="cls-9" x1="224.47" y1="38.37" x2="218.76" y2="39.86"/><circle class="cls-10" cx="209.08" cy="55.72" r="2.16"/><circle class="cls-10" cx="184.59" cy="117.57" r="2.16"/><circle class="cls-10" cx="221.98" cy="10.97" r="2.16"/><path class="cls-21" d="M73.59,255.35l-4.08,4a1.36,1.36,0,0,0,.25,1.84l1.76,1.86c1,1,2.29.58,2-.65l-.12-.53a1.15,1.15,0,0,1,.13-.87l1.78-2.53a.3.3,0,0,1,.08-.08c5-5,2.16-16.35-6.38-25.38s-19.59-12.35-24.65-7.37L42.2,227.8a1,1,0,0,1-1.14.13h0c-1.29-.53-1.92.88-.89,2l1.25,1.33c.57.59,1.37.74,1.79.32l3.49-3.43c4.3-4.23,13.68-1.43,21,6.27S77.33,251.75,73,256"/><polyline class="cls-22" points="43.21 231.55 50.38 251.87 69.51 259.37"/><polyline class="cls-23" points="77.16 224.98 45.63 256.55 38.48 256.36"/><path class="cls-9" d="M72.15,220.84c-1,1-.71,2.86.58,4.23a4,4,0,0,0,2.36,1.27,4.16,4.16,0,0,0,1.16,2.45c1.3,1.38,3.14,1.71,4.12.75a2.51,2.51,0,0,0,.39-2.67l-1.48-4.65-4.5-1.68A2.41,2.41,0,0,0,72.15,220.84Z"/><line class="cls-23" x1="45.63" y1="256.55" x2="45.54" y2="263.83"/><line class="cls-23" x1="49.03" y1="253.19" x2="48.95" y2="260.48"/><line class="cls-23" x1="49.27" y1="253.45" x2="42.14" y2="253.27"/><path class="cls-21" d="M274.8,255.35l4.08,4a1.37,1.37,0,0,1-.25,1.84l-1.76,1.86c-1,1-2.29.58-2-.65l.12-.53a1.11,1.11,0,0,0-.14-.87l-1.77-2.53-.08-.08c-5-5-2.16-16.35,6.37-25.38S299,220.68,304,225.66l2.17,2.14a1,1,0,0,0,1.14.13h0c1.28-.53,1.92.88.89,2L307,231.23c-.57.59-1.37.74-1.79.32l-3.49-3.43c-4.3-4.23-13.68-1.43-20.95,6.27s-9.68,17.36-5.38,21.6"/><polyline class="cls-22" points="305.18 231.55 298.01 251.87 278.88 259.37"/><polyline class="cls-23" points="271.23 224.98 302.76 256.55 309.91 256.36"/><path class="cls-9" d="M276.23,220.84c1,1,.72,2.86-.57,4.23a4,4,0,0,1-2.36,1.27,4.16,4.16,0,0,1-1.16,2.45c-1.3,1.38-3.14,1.71-4.12.75a2.51,2.51,0,0,1-.39-2.67l1.48-4.65,4.5-1.68A2.39,2.39,0,0,1,276.23,220.84Z"/><line class="cls-23" x1="302.76" y1="256.55" x2="302.85" y2="263.83"/><line class="cls-23" x1="299.35" y1="253.19" x2="299.44" y2="260.48"/><line class="cls-23" x1="299.12" y1="253.45" x2="306.25" y2="253.27"/></svg>